<?xml version="1.0" encoding="utf-8" standalone="no"?>
<!DOCTYPE svg PUBLIC "-//W3C//DTD SVG 1.1//EN"
  "http://www.w3.org/Graphics/SVG/1.1/DTD/svg11.dtd">
<!-- Created with matplotlib (http://matplotlib.org/) -->
<svg height="288pt" version="1.1" viewBox="0 0 1440 288" width="1440pt" xmlns="http://www.w3.org/2000/svg" xmlns:xlink="http://www.w3.org/1999/xlink">
 <defs>
  <style type="text/css">
*{stroke-linecap:butt;stroke-linejoin:round;}
  </style>
 </defs>
 <g id="figure_1">
  <g id="patch_1">
   <path d="M 0 288 
L 1440 288 
L 1440 0 
L 0 0 
z
" style="fill:none;"/>
  </g>
  <g id="axes_1">
   <g id="patch_2">
    <path d="M 180 252 
L 372.413793 252 
L 372.413793 34.56 
L 180 34.56 
z
" style="fill:none;"/>
   </g>
   <g id="QuadMesh_1">
    <path clip-path="url(#p9b208efcfb)" d="M 180 34.56 
L 212.068966 34.56 
L 212.068966 65.622857 
L 180 65.622857 
L 180 34.56 
" style="fill:#3b4cc0;"/>
    <path clip-path="url(#p9b208efcfb)" d="M 212.068966 34.56 
L 244.137931 34.56 
L 244.137931 65.622857 
L 212.068966 65.622857 
L 212.068966 34.56 
" style="fill:#dddcdc;"/>
    <path clip-path="url(#p9b208efcfb)" d="M 244.137931 34.56 
L 276.206897 34.56 
L 276.206897 65.622857 
L 244.137931 65.622857 
L 244.137931 34.56 
" style="fill:#edd1c2;"/>
    <path clip-path="url(#p9b208efcfb)" d="M 276.206897 34.56 
L 308.275862 34.56 
L 308.275862 65.622857 
L 276.206897 65.622857 
L 276.206897 34.56 
" style="fill:#f7ad90;"/>
    <path clip-path="url(#p9b208efcfb)" d="M 308.275862 34.56 
L 340.344828 34.56 
L 340.344828 65.622857 
L 308.275862 65.622857 
L 308.275862 34.56 
" style="fill:#ed8366;"/>
    <path clip-path="url(#p9b208efcfb)" d="M 340.344828 34.56 
L 372.413793 34.56 
L 372.413793 65.622857 
L 340.344828 65.622857 
L 340.344828 34.56 
" style="fill:#85a8fc;"/>
    <path clip-path="url(#p9b208efcfb)" d="M 180 65.622857 
L 212.068966 65.622857 
L 212.068966 96.685714 
L 180 96.685714 
L 180 65.622857 
" style="fill:#3b4cc0;"/>
    <path clip-path="url(#p9b208efcfb)" d="M 212.068966 65.622857 
L 244.137931 65.622857 
L 244.137931 96.685714 
L 212.068966 96.685714 
L 212.068966 65.622857 
" style="fill:#f7b599;"/>
    <path clip-path="url(#p9b208efcfb)" d="M 244.137931 65.622857 
L 276.206897 65.622857 
L 276.206897 96.685714 
L 244.137931 96.685714 
L 244.137931 65.622857 
" style="fill:#f7ad90;"/>
    <path clip-path="url(#p9b208efcfb)" d="M 276.206897 65.622857 
L 308.275862 65.622857 
L 308.275862 96.685714 
L 276.206897 96.685714 
L 276.206897 65.622857 
" style="fill:#ea7b60;"/>
    <path clip-path="url(#p9b208efcfb)" d="M 308.275862 65.622857 
L 340.344828 65.622857 
L 340.344828 96.685714 
L 308.275862 96.685714 
L 308.275862 65.622857 
" style="fill:#ba162b;"/>
    <path clip-path="url(#p9b208efcfb)" d="M 340.344828 65.622857 
L 372.413793 65.622857 
L 372.413793 96.685714 
L 340.344828 96.685714 
L 340.344828 65.622857 
" style="fill:#a1c0ff;"/>
    <path clip-path="url(#p9b208efcfb)" d="M 180 96.685714 
L 212.068966 96.685714 
L 212.068966 127.748571 
L 180 127.748571 
L 180 96.685714 
" style="fill:#3b4cc0;"/>
    <path clip-path="url(#p9b208efcfb)" d="M 212.068966 96.685714 
L 244.137931 96.685714 
L 244.137931 127.748571 
L 212.068966 127.748571 
L 212.068966 96.685714 
" style="fill:#f7b497;"/>
    <path clip-path="url(#p9b208efcfb)" d="M 244.137931 96.685714 
L 276.206897 96.685714 
L 276.206897 127.748571 
L 244.137931 127.748571 
L 244.137931 96.685714 
" style="fill:#f6a385;"/>
    <path clip-path="url(#p9b208efcfb)" d="M 276.206897 96.685714 
L 308.275862 96.685714 
L 308.275862 127.748571 
L 276.206897 127.748571 
L 276.206897 96.685714 
" style="fill:#e8765c;"/>
    <path clip-path="url(#p9b208efcfb)" d="M 308.275862 96.685714 
L 340.344828 96.685714 
L 340.344828 127.748571 
L 308.275862 127.748571 
L 308.275862 96.685714 
" style="fill:#b40426;"/>
    <path clip-path="url(#p9b208efcfb)" d="M 340.344828 96.685714 
L 372.413793 96.685714 
L 372.413793 127.748571 
L 340.344828 127.748571 
L 340.344828 96.685714 
" style="fill:#9dbdff;"/>
    <path clip-path="url(#p9b208efcfb)" d="M 180 127.748571 
L 212.068966 127.748571 
L 212.068966 158.811429 
L 180 158.811429 
L 180 127.748571 
" style="fill:#3c4ec2;"/>
    <path clip-path="url(#p9b208efcfb)" d="M 212.068966 127.748571 
L 244.137931 127.748571 
L 244.137931 158.811429 
L 212.068966 158.811429 
L 212.068966 127.748571 
" style="fill:#f6bea4;"/>
    <path clip-path="url(#p9b208efcfb)" d="M 244.137931 127.748571 
L 276.206897 127.748571 
L 276.206897 158.811429 
L 244.137931 158.811429 
L 244.137931 127.748571 
" style="fill:#f5a081;"/>
    <path clip-path="url(#p9b208efcfb)" d="M 276.206897 127.748571 
L 308.275862 127.748571 
L 308.275862 158.811429 
L 276.206897 158.811429 
L 276.206897 127.748571 
" style="fill:#ec8165;"/>
    <path clip-path="url(#p9b208efcfb)" d="M 308.275862 127.748571 
L 340.344828 127.748571 
L 340.344828 158.811429 
L 308.275862 158.811429 
L 308.275862 127.748571 
" style="fill:#bd1f2d;"/>
    <path clip-path="url(#p9b208efcfb)" d="M 340.344828 127.748571 
L 372.413793 127.748571 
L 372.413793 158.811429 
L 340.344828 158.811429 
L 340.344828 127.748571 
" style="fill:#9bbcff;"/>
    <path clip-path="url(#p9b208efcfb)" d="M 180 158.811429 
L 212.068966 158.811429 
L 212.068966 189.874286 
L 180 189.874286 
L 180 158.811429 
" style="fill:#3d50c3;"/>
    <path clip-path="url(#p9b208efcfb)" d="M 212.068966 158.811429 
L 244.137931 158.811429 
L 244.137931 189.874286 
L 212.068966 189.874286 
L 212.068966 158.811429 
" style="fill:#f0cdbb;"/>
    <path clip-path="url(#p9b208efcfb)" d="M 244.137931 158.811429 
L 276.206897 158.811429 
L 276.206897 189.874286 
L 244.137931 189.874286 
L 244.137931 158.811429 
" style="fill:#f7b194;"/>
    <path clip-path="url(#p9b208efcfb)" d="M 276.206897 158.811429 
L 308.275862 158.811429 
L 308.275862 189.874286 
L 276.206897 189.874286 
L 276.206897 158.811429 
" style="fill:#e16751;"/>
    <path clip-path="url(#p9b208efcfb)" d="M 308.275862 158.811429 
L 340.344828 158.811429 
L 340.344828 189.874286 
L 308.275862 189.874286 
L 308.275862 158.811429 
" style="fill:#e67259;"/>
    <path clip-path="url(#p9b208efcfb)" d="M 340.344828 158.811429 
L 372.413793 158.811429 
L 372.413793 189.874286 
L 340.344828 189.874286 
L 340.344828 158.811429 
" style="fill:#80a3fa;"/>
    <path clip-path="url(#p9b208efcfb)" d="M 180 189.874286 
L 212.068966 189.874286 
L 212.068966 220.937143 
L 180 220.937143 
L 180 189.874286 
" style="fill:#4257c9;"/>
    <path clip-path="url(#p9b208efcfb)" d="M 212.068966 189.874286 
L 244.137931 189.874286 
L 244.137931 220.937143 
L 212.068966 220.937143 
L 212.068966 189.874286 
" style="fill:#6687ed;"/>
    <path clip-path="url(#p9b208efcfb)" d="M 244.137931 189.874286 
L 276.206897 189.874286 
L 276.206897 220.937143 
L 244.137931 220.937143 
L 244.137931 189.874286 
" style="fill:#c4d5f3;"/>
    <path clip-path="url(#p9b208efcfb)" d="M 276.206897 189.874286 
L 308.275862 189.874286 
L 308.275862 220.937143 
L 276.206897 220.937143 
L 276.206897 189.874286 
" style="fill:#e3d9d3;"/>
    <path clip-path="url(#p9b208efcfb)" d="M 308.275862 189.874286 
L 340.344828 189.874286 
L 340.344828 220.937143 
L 308.275862 220.937143 
L 308.275862 189.874286 
" style="fill:#d3dbe7;"/>
    <path clip-path="url(#p9b208efcfb)" d="M 340.344828 189.874286 
L 372.413793 189.874286 
L 372.413793 220.937143 
L 340.344828 220.937143 
L 340.344828 189.874286 
" style="fill:#8caffe;"/>
    <path clip-path="url(#p9b208efcfb)" d="M 180 220.937143 
L 212.068966 220.937143 
L 212.068966 252 
L 180 252 
L 180 220.937143 
" style="fill:#4055c8;"/>
    <path clip-path="url(#p9b208efcfb)" d="M 212.068966 220.937143 
L 244.137931 220.937143 
L 244.137931 252 
L 212.068966 252 
L 212.068966 220.937143 
" style="fill:#5875e1;"/>
    <path clip-path="url(#p9b208efcfb)" d="M 244.137931 220.937143 
L 276.206897 220.937143 
L 276.206897 252 
L 244.137931 252 
L 244.137931 220.937143 
" style="fill:#b1cbfc;"/>
    <path clip-path="url(#p9b208efcfb)" d="M 276.206897 220.937143 
L 308.275862 220.937143 
L 308.275862 252 
L 276.206897 252 
L 276.206897 220.937143 
" style="fill:#d9dce1;"/>
    <path clip-path="url(#p9b208efcfb)" d="M 308.275862 220.937143 
L 340.344828 220.937143 
L 340.344828 252 
L 308.275862 252 
L 308.275862 220.937143 
" style="fill:#c3d5f4;"/>
    <path clip-path="url(#p9b208efcfb)" d="M 340.344828 220.937143 
L 372.413793 220.937143 
L 372.413793 252 
L 340.344828 252 
L 340.344828 220.937143 
" style="fill:#7093f3;"/>
   </g>
   <g id="matplotlib.axis_1">
    <g id="xtick_1">
     <g id="line2d_1">
      <defs>
       <path d="M 0 0 
L 0 3.5 
" id="m8080195d30" style="stroke:#000000;stroke-width:0.8;"/>
      </defs>
      <g>
       <use style="stroke:#000000;stroke-width:0.8;" x="196.034483" xlink:href="#m8080195d30" y="252"/>
      </g>
     </g>
     <g id="text_1">
      <!-- 0h -->
      <defs>
       <path d="M 31.78125 66.40625 
Q 24.171875 66.40625 20.328125 58.90625 
Q 16.5 51.421875 16.5 36.375 
Q 16.5 21.390625 20.328125 13.890625 
Q 24.171875 6.390625 31.78125 6.390625 
Q 39.453125 6.390625 43.28125 13.890625 
Q 47.125 21.390625 47.125 36.375 
Q 47.125 51.421875 43.28125 58.90625 
Q 39.453125 66.40625 31.78125 66.40625 
z
M 31.78125 74.21875 
Q 44.046875 74.21875 50.515625 64.515625 
Q 56.984375 54.828125 56.984375 36.375 
Q 56.984375 17.96875 50.515625 8.265625 
Q 44.046875 -1.421875 31.78125 -1.421875 
Q 19.53125 -1.421875 13.0625 8.265625 
Q 6.59375 17.96875 6.59375 36.375 
Q 6.59375 54.828125 13.0625 64.515625 
Q 19.53125 74.21875 31.78125 74.21875 
z
" id="DejaVuSans-30"/>
       <path d="M 54.890625 33.015625 
L 54.890625 0 
L 45.90625 0 
L 45.90625 32.71875 
Q 45.90625 40.484375 42.875 44.328125 
Q 39.84375 48.1875 33.796875 48.1875 
Q 26.515625 48.1875 22.3125 43.546875 
Q 18.109375 38.921875 18.109375 30.90625 
L 18.109375 0 
L 9.078125 0 
L 9.078125 75.984375 
L 18.109375 75.984375 
L 18.109375 46.1875 
Q 21.34375 51.125 25.703125 53.5625 
Q 30.078125 56 35.796875 56 
Q 45.21875 56 50.046875 50.171875 
Q 54.890625 44.34375 54.890625 33.015625 
z
" id="DejaVuSans-68"/>
      </defs>
      <g transform="translate(189.684483 266.598437)scale(0.1 -0.1)">
       <use xlink:href="#DejaVuSans-30"/>
       <use x="63.623047" xlink:href="#DejaVuSans-68"/>
      </g>
     </g>
    </g>
    <g id="xtick_2">
     <g id="line2d_2">
      <g>
       <use style="stroke:#000000;stroke-width:0.8;" x="228.103448" xlink:href="#m8080195d30" y="252"/>
      </g>
     </g>
     <g id="text_2">
      <!-- 4h -->
      <defs>
       <path d="M 37.796875 64.3125 
L 12.890625 25.390625 
L 37.796875 25.390625 
z
M 35.203125 72.90625 
L 47.609375 72.90625 
L 47.609375 25.390625 
L 58.015625 25.390625 
L 58.015625 17.1875 
L 47.609375 17.1875 
L 47.609375 0 
L 37.796875 0 
L 37.796875 17.1875 
L 4.890625 17.1875 
L 4.890625 26.703125 
z
" id="DejaVuSans-34"/>
      </defs>
      <g transform="translate(221.753448 266.598437)scale(0.1 -0.1)">
       <use xlink:href="#DejaVuSans-34"/>
       <use x="63.623047" xlink:href="#DejaVuSans-68"/>
      </g>
     </g>
    </g>
    <g id="xtick_3">
     <g id="line2d_3">
      <g>
       <use style="stroke:#000000;stroke-width:0.8;" x="260.172414" xlink:href="#m8080195d30" y="252"/>
      </g>
     </g>
     <g id="text_3">
      <!-- 8h -->
      <defs>
       <path d="M 31.78125 34.625 
Q 24.75 34.625 20.71875 30.859375 
Q 16.703125 27.09375 16.703125 20.515625 
Q 16.703125 13.921875 20.71875 10.15625 
Q 24.75 6.390625 31.78125 6.390625 
Q 38.8125 6.390625 42.859375 10.171875 
Q 46.921875 13.96875 46.921875 20.515625 
Q 46.921875 27.09375 42.890625 30.859375 
Q 38.875 34.625 31.78125 34.625 
z
M 21.921875 38.8125 
Q 15.578125 40.375 12.03125 44.71875 
Q 8.5 49.078125 8.5 55.328125 
Q 8.5 64.0625 14.71875 69.140625 
Q 20.953125 74.21875 31.78125 74.21875 
Q 42.671875 74.21875 48.875 69.140625 
Q 55.078125 64.0625 55.078125 55.328125 
Q 55.078125 49.078125 51.53125 44.71875 
Q 48 40.375 41.703125 38.8125 
Q 48.828125 37.15625 52.796875 32.3125 
Q 56.78125 27.484375 56.78125 20.515625 
Q 56.78125 9.90625 50.3125 4.234375 
Q 43.84375 -1.421875 31.78125 -1.421875 
Q 19.734375 -1.421875 13.25 4.234375 
Q 6.78125 9.90625 6.78125 20.515625 
Q 6.78125 27.484375 10.78125 32.3125 
Q 14.796875 37.15625 21.921875 38.8125 
z
M 18.3125 54.390625 
Q 18.3125 48.734375 21.84375 45.5625 
Q 25.390625 42.390625 31.78125 42.390625 
Q 38.140625 42.390625 41.71875 45.5625 
Q 45.3125 48.734375 45.3125 54.390625 
Q 45.3125 60.0625 41.71875 63.234375 
Q 38.140625 66.40625 31.78125 66.40625 
Q 25.390625 66.40625 21.84375 63.234375 
Q 18.3125 60.0625 18.3125 54.390625 
z
" id="DejaVuSans-38"/>
      </defs>
      <g transform="translate(253.822414 266.598437)scale(0.1 -0.1)">
       <use xlink:href="#DejaVuSans-38"/>
       <use x="63.623047" xlink:href="#DejaVuSans-68"/>
      </g>
     </g>
    </g>
    <g id="xtick_4">
     <g id="line2d_4">
      <g>
       <use style="stroke:#000000;stroke-width:0.8;" x="292.241379" xlink:href="#m8080195d30" y="252"/>
      </g>
     </g>
     <g id="text_4">
      <!-- 12h -->
      <defs>
       <path d="M 12.40625 8.296875 
L 28.515625 8.296875 
L 28.515625 63.921875 
L 10.984375 60.40625 
L 10.984375 69.390625 
L 28.421875 72.90625 
L 38.28125 72.90625 
L 38.28125 8.296875 
L 54.390625 8.296875 
L 54.390625 0 
L 12.40625 0 
z
" id="DejaVuSans-31"/>
       <path d="M 19.1875 8.296875 
L 53.609375 8.296875 
L 53.609375 0 
L 7.328125 0 
L 7.328125 8.296875 
Q 12.9375 14.109375 22.625 23.890625 
Q 32.328125 33.6875 34.8125 36.53125 
Q 39.546875 41.84375 41.421875 45.53125 
Q 43.3125 49.21875 43.3125 52.78125 
Q 43.3125 58.59375 39.234375 62.25 
Q 35.15625 65.921875 28.609375 65.921875 
Q 23.96875 65.921875 18.8125 64.3125 
Q 13.671875 62.703125 7.8125 59.421875 
L 7.8125 69.390625 
Q 13.765625 71.78125 18.9375 73 
Q 24.125 74.21875 28.421875 74.21875 
Q 39.75 74.21875 46.484375 68.546875 
Q 53.21875 62.890625 53.21875 53.421875 
Q 53.21875 48.921875 51.53125 44.890625 
Q 49.859375 40.875 45.40625 35.40625 
Q 44.1875 33.984375 37.640625 27.21875 
Q 31.109375 20.453125 19.1875 8.296875 
z
" id="DejaVuSans-32"/>
      </defs>
      <g transform="translate(282.710129 266.598437)scale(0.1 -0.1)">
       <use xlink:href="#DejaVuSans-31"/>
       <use x="63.623047" xlink:href="#DejaVuSans-32"/>
       <use x="127.246094" xlink:href="#DejaVuSans-68"/>
      </g>
     </g>
    </g>
    <g id="xtick_5">
     <g id="line2d_5">
      <g>
       <use style="stroke:#000000;stroke-width:0.8;" x="324.310345" xlink:href="#m8080195d30" y="252"/>
      </g>
     </g>
     <g id="text_5">
      <!-- 16h -->
      <defs>
       <path d="M 33.015625 40.375 
Q 26.375 40.375 22.484375 35.828125 
Q 18.609375 31.296875 18.609375 23.390625 
Q 18.609375 15.53125 22.484375 10.953125 
Q 26.375 6.390625 33.015625 6.390625 
Q 39.65625 6.390625 43.53125 10.953125 
Q 47.40625 15.53125 47.40625 23.390625 
Q 47.40625 31.296875 43.53125 35.828125 
Q 39.65625 40.375 33.015625 40.375 
z
M 52.59375 71.296875 
L 52.59375 62.3125 
Q 48.875 64.0625 45.09375 64.984375 
Q 41.3125 65.921875 37.59375 65.921875 
Q 27.828125 65.921875 22.671875 59.328125 
Q 17.53125 52.734375 16.796875 39.40625 
Q 19.671875 43.65625 24.015625 45.921875 
Q 28.375 48.1875 33.59375 48.1875 
Q 44.578125 48.1875 50.953125 41.515625 
Q 57.328125 34.859375 57.328125 23.390625 
Q 57.328125 12.15625 50.6875 5.359375 
Q 44.046875 -1.421875 33.015625 -1.421875 
Q 20.359375 -1.421875 13.671875 8.265625 
Q 6.984375 17.96875 6.984375 36.375 
Q 6.984375 53.65625 15.1875 63.9375 
Q 23.390625 74.21875 37.203125 74.21875 
Q 40.921875 74.21875 44.703125 73.484375 
Q 48.484375 72.75 52.59375 71.296875 
z
" id="DejaVuSans-36"/>
      </defs>
      <g transform="translate(314.779095 266.598437)scale(0.1 -0.1)">
       <use xlink:href="#DejaVuSans-31"/>
       <use x="63.623047" xlink:href="#DejaVuSans-36"/>
       <use x="127.246094" xlink:href="#DejaVuSans-68"/>
      </g>
     </g>
    </g>
    <g id="xtick_6">
     <g id="line2d_6">
      <g>
       <use style="stroke:#000000;stroke-width:0.8;" x="356.37931" xlink:href="#m8080195d30" y="252"/>
      </g>
     </g>
     <g id="text_6">
      <!-- 20h -->
      <g transform="translate(346.84806 266.598437)scale(0.1 -0.1)">
       <use xlink:href="#DejaVuSans-32"/>
       <use x="63.623047" xlink:href="#DejaVuSans-30"/>
       <use x="127.246094" xlink:href="#DejaVuSans-68"/>
      </g>
     </g>
    </g>
   </g>
   <g id="matplotlib.axis_2">
    <g id="ytick_1">
     <g id="line2d_7">
      <defs>
       <path d="M 0 0 
L -3.5 0 
" id="m26252230a6" style="stroke:#000000;stroke-width:0.8;"/>
      </defs>
      <g>
       <use style="stroke:#000000;stroke-width:0.8;" x="180" xlink:href="#m26252230a6" y="50.091429"/>
      </g>
     </g>
     <g id="text_7">
      <!-- Mon -->
      <defs>
       <path d="M 9.8125 72.90625 
L 24.515625 72.90625 
L 43.109375 23.296875 
L 61.8125 72.90625 
L 76.515625 72.90625 
L 76.515625 0 
L 66.890625 0 
L 66.890625 64.015625 
L 48.09375 14.015625 
L 38.1875 14.015625 
L 19.390625 64.015625 
L 19.390625 0 
L 9.8125 0 
z
" id="DejaVuSans-4d"/>
       <path d="M 30.609375 48.390625 
Q 23.390625 48.390625 19.1875 42.75 
Q 14.984375 37.109375 14.984375 27.296875 
Q 14.984375 17.484375 19.15625 11.84375 
Q 23.34375 6.203125 30.609375 6.203125 
Q 37.796875 6.203125 41.984375 11.859375 
Q 46.1875 17.53125 46.1875 27.296875 
Q 46.1875 37.015625 41.984375 42.703125 
Q 37.796875 48.390625 30.609375 48.390625 
z
M 30.609375 56 
Q 42.328125 56 49.015625 48.375 
Q 55.71875 40.765625 55.71875 27.296875 
Q 55.71875 13.875 49.015625 6.21875 
Q 42.328125 -1.421875 30.609375 -1.421875 
Q 18.84375 -1.421875 12.171875 6.21875 
Q 5.515625 13.875 5.515625 27.296875 
Q 5.515625 40.765625 12.171875 48.375 
Q 18.84375 56 30.609375 56 
z
" id="DejaVuSans-6f"/>
       <path d="M 54.890625 33.015625 
L 54.890625 0 
L 45.90625 0 
L 45.90625 32.71875 
Q 45.90625 40.484375 42.875 44.328125 
Q 39.84375 48.1875 33.796875 48.1875 
Q 26.515625 48.1875 22.3125 43.546875 
Q 18.109375 38.921875 18.109375 30.90625 
L 18.109375 0 
L 9.078125 0 
L 9.078125 54.6875 
L 18.109375 54.6875 
L 18.109375 46.1875 
Q 21.34375 51.125 25.703125 53.5625 
Q 30.078125 56 35.796875 56 
Q 45.21875 56 50.046875 50.171875 
Q 54.890625 44.34375 54.890625 33.015625 
z
" id="DejaVuSans-6e"/>
      </defs>
      <g transform="translate(170.920312 67.376585)rotate(-90)scale(0.1 -0.1)">
       <use xlink:href="#DejaVuSans-4d"/>
       <use x="86.279297" xlink:href="#DejaVuSans-6f"/>
       <use x="147.460938" xlink:href="#DejaVuSans-6e"/>
      </g>
     </g>
    </g>
    <g id="ytick_2">
     <g id="line2d_8">
      <g>
       <use style="stroke:#000000;stroke-width:0.8;" x="180" xlink:href="#m26252230a6" y="81.154286"/>
      </g>
     </g>
     <g id="text_8">
      <!-- Tue -->
      <defs>
       <path d="M -0.296875 72.90625 
L 61.375 72.90625 
L 61.375 64.59375 
L 35.5 64.59375 
L 35.5 0 
L 25.59375 0 
L 25.59375 64.59375 
L -0.296875 64.59375 
z
" id="DejaVuSans-54"/>
       <path d="M 8.5 21.578125 
L 8.5 54.6875 
L 17.484375 54.6875 
L 17.484375 21.921875 
Q 17.484375 14.15625 20.5 10.265625 
Q 23.53125 6.390625 29.59375 6.390625 
Q 36.859375 6.390625 41.078125 11.03125 
Q 45.3125 15.671875 45.3125 23.6875 
L 45.3125 54.6875 
L 54.296875 54.6875 
L 54.296875 0 
L 45.3125 0 
L 45.3125 8.40625 
Q 42.046875 3.421875 37.71875 1 
Q 33.40625 -1.421875 27.6875 -1.421875 
Q 18.265625 -1.421875 13.375 4.4375 
Q 8.5 10.296875 8.5 21.578125 
z
M 31.109375 56 
z
" id="DejaVuSans-75"/>
       <path d="M 56.203125 29.59375 
L 56.203125 25.203125 
L 14.890625 25.203125 
Q 15.484375 15.921875 20.484375 11.0625 
Q 25.484375 6.203125 34.421875 6.203125 
Q 39.59375 6.203125 44.453125 7.46875 
Q 49.3125 8.734375 54.109375 11.28125 
L 54.109375 2.78125 
Q 49.265625 0.734375 44.1875 -0.34375 
Q 39.109375 -1.421875 33.890625 -1.421875 
Q 20.796875 -1.421875 13.15625 6.1875 
Q 5.515625 13.8125 5.515625 26.8125 
Q 5.515625 40.234375 12.765625 48.109375 
Q 20.015625 56 32.328125 56 
Q 43.359375 56 49.78125 48.890625 
Q 56.203125 41.796875 56.203125 29.59375 
z
M 47.21875 32.234375 
Q 47.125 39.59375 43.09375 43.984375 
Q 39.0625 48.390625 32.421875 48.390625 
Q 24.90625 48.390625 20.390625 44.140625 
Q 15.875 39.890625 15.1875 32.171875 
z
" id="DejaVuSans-65"/>
      </defs>
      <g transform="translate(170.920312 95.930067)rotate(-90)scale(0.1 -0.1)">
       <use xlink:href="#DejaVuSans-54"/>
       <use x="60.849609" xlink:href="#DejaVuSans-75"/>
       <use x="124.228516" xlink:href="#DejaVuSans-65"/>
      </g>
     </g>
    </g>
    <g id="ytick_3">
     <g id="line2d_9">
      <g>
       <use style="stroke:#000000;stroke-width:0.8;" x="180" xlink:href="#m26252230a6" y="112.217143"/>
      </g>
     </g>
     <g id="text_9">
      <!-- Wed -->
      <defs>
       <path d="M 3.328125 72.90625 
L 13.28125 72.90625 
L 28.609375 11.28125 
L 43.890625 72.90625 
L 54.984375 72.90625 
L 70.3125 11.28125 
L 85.59375 72.90625 
L 95.609375 72.90625 
L 77.296875 0 
L 64.890625 0 
L 49.515625 63.28125 
L 33.984375 0 
L 21.578125 0 
z
" id="DejaVuSans-57"/>
       <path d="M 45.40625 46.390625 
L 45.40625 75.984375 
L 54.390625 75.984375 
L 54.390625 0 
L 45.40625 0 
L 45.40625 8.203125 
Q 42.578125 3.328125 38.25 0.953125 
Q 33.9375 -1.421875 27.875 -1.421875 
Q 17.96875 -1.421875 11.734375 6.484375 
Q 5.515625 14.40625 5.515625 27.296875 
Q 5.515625 40.1875 11.734375 48.09375 
Q 17.96875 56 27.875 56 
Q 33.9375 56 38.25 53.625 
Q 42.578125 51.265625 45.40625 46.390625 
z
M 14.796875 27.296875 
Q 14.796875 17.390625 18.875 11.75 
Q 22.953125 6.109375 30.078125 6.109375 
Q 37.203125 6.109375 41.296875 11.75 
Q 45.40625 17.390625 45.40625 27.296875 
Q 45.40625 37.203125 41.296875 42.84375 
Q 37.203125 48.484375 30.078125 48.484375 
Q 22.953125 48.484375 18.875 42.84375 
Q 14.796875 37.203125 14.796875 27.296875 
z
" id="DejaVuSans-64"/>
      </defs>
      <g transform="translate(170.920312 130.799174)rotate(-90)scale(0.1 -0.1)">
       <use xlink:href="#DejaVuSans-57"/>
       <use x="98.798828" xlink:href="#DejaVuSans-65"/>
       <use x="160.322266" xlink:href="#DejaVuSans-64"/>
      </g>
     </g>
    </g>
    <g id="ytick_4">
     <g id="line2d_10">
      <g>
       <use style="stroke:#000000;stroke-width:0.8;" x="180" xlink:href="#m26252230a6" y="143.28"/>
      </g>
     </g>
     <g id="text_10">
      <!-- Thu -->
      <g transform="translate(170.920312 158.263594)rotate(-90)scale(0.1 -0.1)">
       <use xlink:href="#DejaVuSans-54"/>
       <use x="61.083984" xlink:href="#DejaVuSans-68"/>
       <use x="124.462891" xlink:href="#DejaVuSans-75"/>
      </g>
     </g>
    </g>
    <g id="ytick_5">
     <g id="line2d_11">
      <g>
       <use style="stroke:#000000;stroke-width:0.8;" x="180" xlink:href="#m26252230a6" y="174.342857"/>
      </g>
     </g>
     <g id="text_11">
      <!-- Fri -->
      <defs>
       <path d="M 9.8125 72.90625 
L 51.703125 72.90625 
L 51.703125 64.59375 
L 19.671875 64.59375 
L 19.671875 43.109375 
L 48.578125 43.109375 
L 48.578125 34.8125 
L 19.671875 34.8125 
L 19.671875 0 
L 9.8125 0 
z
" id="DejaVuSans-46"/>
       <path d="M 41.109375 46.296875 
Q 39.59375 47.171875 37.8125 47.578125 
Q 36.03125 48 33.890625 48 
Q 26.265625 48 22.1875 43.046875 
Q 18.109375 38.09375 18.109375 28.8125 
L 18.109375 0 
L 9.078125 0 
L 9.078125 54.6875 
L 18.109375 54.6875 
L 18.109375 46.1875 
Q 20.953125 51.171875 25.484375 53.578125 
Q 30.03125 56 36.53125 56 
Q 37.453125 56 38.578125 55.875 
Q 39.703125 55.765625 41.0625 55.515625 
z
" id="DejaVuSans-72"/>
       <path d="M 9.421875 54.6875 
L 18.40625 54.6875 
L 18.40625 0 
L 9.421875 0 
z
M 9.421875 75.984375 
L 18.40625 75.984375 
L 18.40625 64.59375 
L 9.421875 64.59375 
z
" id="DejaVuSans-69"/>
      </defs>
      <g transform="translate(170.920312 183.173326)rotate(-90)scale(0.1 -0.1)">
       <use xlink:href="#DejaVuSans-46"/>
       <use x="57.410156" xlink:href="#DejaVuSans-72"/>
       <use x="98.523438" xlink:href="#DejaVuSans-69"/>
      </g>
     </g>
    </g>
    <g id="ytick_6">
     <g id="line2d_12">
      <g>
       <use style="stroke:#000000;stroke-width:0.8;" x="180" xlink:href="#m26252230a6" y="205.405714"/>
      </g>
     </g>
     <g id="text_12">
      <!-- Sat -->
      <defs>
       <path d="M 53.515625 70.515625 
L 53.515625 60.890625 
Q 47.90625 63.578125 42.921875 64.890625 
Q 37.9375 66.21875 33.296875 66.21875 
Q 25.25 66.21875 20.875 63.09375 
Q 16.5 59.96875 16.5 54.203125 
Q 16.5 49.359375 19.40625 46.890625 
Q 22.3125 44.4375 30.421875 42.921875 
L 36.375 41.703125 
Q 47.40625 39.59375 52.65625 34.296875 
Q 57.90625 29 57.90625 20.125 
Q 57.90625 9.515625 50.796875 4.046875 
Q 43.703125 -1.421875 29.984375 -1.421875 
Q 24.8125 -1.421875 18.96875 -0.25 
Q 13.140625 0.921875 6.890625 3.21875 
L 6.890625 13.375 
Q 12.890625 10.015625 18.65625 8.296875 
Q 24.421875 6.59375 29.984375 6.59375 
Q 38.421875 6.59375 43.015625 9.90625 
Q 47.609375 13.234375 47.609375 19.390625 
Q 47.609375 24.75 44.3125 27.78125 
Q 41.015625 30.8125 33.5 32.328125 
L 27.484375 33.5 
Q 16.453125 35.6875 11.515625 40.375 
Q 6.59375 45.0625 6.59375 53.421875 
Q 6.59375 63.09375 13.40625 68.65625 
Q 20.21875 74.21875 32.171875 74.21875 
Q 37.3125 74.21875 42.625 73.28125 
Q 47.953125 72.359375 53.515625 70.515625 
z
" id="DejaVuSans-53"/>
       <path d="M 34.28125 27.484375 
Q 23.390625 27.484375 19.1875 25 
Q 14.984375 22.515625 14.984375 16.5 
Q 14.984375 11.71875 18.140625 8.90625 
Q 21.296875 6.109375 26.703125 6.109375 
Q 34.1875 6.109375 38.703125 11.40625 
Q 43.21875 16.703125 43.21875 25.484375 
L 43.21875 27.484375 
z
M 52.203125 31.203125 
L 52.203125 0 
L 43.21875 0 
L 43.21875 8.296875 
Q 40.140625 3.328125 35.546875 0.953125 
Q 30.953125 -1.421875 24.3125 -1.421875 
Q 15.921875 -1.421875 10.953125 3.296875 
Q 6 8.015625 6 15.921875 
Q 6 25.140625 12.171875 29.828125 
Q 18.359375 34.515625 30.609375 34.515625 
L 43.21875 34.515625 
L 43.21875 35.40625 
Q 43.21875 41.609375 39.140625 45 
Q 35.0625 48.390625 27.6875 48.390625 
Q 23 48.390625 18.546875 47.265625 
Q 14.109375 46.140625 10.015625 43.890625 
L 10.015625 52.203125 
Q 14.9375 54.109375 19.578125 55.046875 
Q 24.21875 56 28.609375 56 
Q 40.484375 56 46.34375 49.84375 
Q 52.203125 43.703125 52.203125 31.203125 
z
" id="DejaVuSans-61"/>
       <path d="M 18.3125 70.21875 
L 18.3125 54.6875 
L 36.8125 54.6875 
L 36.8125 47.703125 
L 18.3125 47.703125 
L 18.3125 18.015625 
Q 18.3125 11.328125 20.140625 9.421875 
Q 21.96875 7.515625 27.59375 7.515625 
L 36.8125 7.515625 
L 36.8125 0 
L 27.59375 0 
Q 17.1875 0 13.234375 3.875 
Q 9.28125 7.765625 9.28125 18.015625 
L 9.28125 47.703125 
L 2.6875 47.703125 
L 2.6875 54.6875 
L 9.28125 54.6875 
L 9.28125 70.21875 
z
" id="DejaVuSans-74"/>
      </defs>
      <g transform="translate(170.920312 218.003371)rotate(-90)scale(0.1 -0.1)">
       <use xlink:href="#DejaVuSans-53"/>
       <use x="63.476562" xlink:href="#DejaVuSans-61"/>
       <use x="124.755859" xlink:href="#DejaVuSans-74"/>
      </g>
     </g>
    </g>
    <g id="ytick_7">
     <g id="line2d_13">
      <g>
       <use style="stroke:#000000;stroke-width:0.8;" x="180" xlink:href="#m26252230a6" y="236.468571"/>
      </g>
     </g>
     <g id="text_13">
      <!-- Sun -->
      <g transform="translate(170.920312 251.69279)rotate(-90)scale(0.1 -0.1)">
       <use xlink:href="#DejaVuSans-53"/>
       <use x="63.476562" xlink:href="#DejaVuSans-75"/>
       <use x="126.855469" xlink:href="#DejaVuSans-6e"/>
      </g>
     </g>
    </g>
   </g>
   <g id="text_14">
    <!-- 96 ST -->
    <defs>
     <path d="M 10.984375 1.515625 
L 10.984375 10.5 
Q 14.703125 8.734375 18.5 7.8125 
Q 22.3125 6.890625 25.984375 6.890625 
Q 35.75 6.890625 40.890625 13.453125 
Q 46.046875 20.015625 46.78125 33.40625 
Q 43.953125 29.203125 39.59375 26.953125 
Q 35.25 24.703125 29.984375 24.703125 
Q 19.046875 24.703125 12.671875 31.3125 
Q 6.296875 37.9375 6.296875 49.421875 
Q 6.296875 60.640625 12.9375 67.421875 
Q 19.578125 74.21875 30.609375 74.21875 
Q 43.265625 74.21875 49.921875 64.515625 
Q 56.59375 54.828125 56.59375 36.375 
Q 56.59375 19.140625 48.40625 8.859375 
Q 40.234375 -1.421875 26.421875 -1.421875 
Q 22.703125 -1.421875 18.890625 -0.6875 
Q 15.09375 0.046875 10.984375 1.515625 
z
M 30.609375 32.421875 
Q 37.25 32.421875 41.125 36.953125 
Q 45.015625 41.5 45.015625 49.421875 
Q 45.015625 57.28125 41.125 61.84375 
Q 37.25 66.40625 30.609375 66.40625 
Q 23.96875 66.40625 20.09375 61.84375 
Q 16.21875 57.28125 16.21875 49.421875 
Q 16.21875 41.5 20.09375 36.953125 
Q 23.96875 32.421875 30.609375 32.421875 
z
" id="DejaVuSans-39"/>
     <path id="DejaVuSans-20"/>
    </defs>
    <g transform="translate(253.519397 28.56)scale(0.16 -0.16)">
     <use xlink:href="#DejaVuSans-39"/>
     <use x="63.623047" xlink:href="#DejaVuSans-36"/>
     <use x="127.246094" xlink:href="#DejaVuSans-20"/>
     <use x="159.033203" xlink:href="#DejaVuSans-53"/>
     <use x="222.509766" xlink:href="#DejaVuSans-54"/>
    </g>
   </g>
  </g>
  <g id="axes_2">
   <g id="patch_3">
    <path d="M 410.896552 252 
L 603.310345 252 
L 603.310345 34.56 
L 410.896552 34.56 
z
" style="fill:none;"/>
   </g>
   <g id="QuadMesh_2">
    <path clip-path="url(#p54b6f9abf8)" d="M 410.896552 34.56 
L 442.965517 34.56 
L 442.965517 65.622857 
L 410.896552 65.622857 
L 410.896552 34.56 
" style="fill:#3b4cc0;"/>
    <path clip-path="url(#p54b6f9abf8)" d="M 442.965517 34.56 
L 475.034483 34.56 
L 475.034483 65.622857 
L 442.965517 65.622857 
L 442.965517 34.56 
" style="fill:#c1d4f4;"/>
    <path clip-path="url(#p54b6f9abf8)" d="M 475.034483 34.56 
L 507.103448 34.56 
L 507.103448 65.622857 
L 475.034483 65.622857 
L 475.034483 34.56 
" style="fill:#f3c8b2;"/>
    <path clip-path="url(#p54b6f9abf8)" d="M 507.103448 34.56 
L 539.172414 34.56 
L 539.172414 65.622857 
L 507.103448 65.622857 
L 507.103448 34.56 
" style="fill:#f18d6f;"/>
    <path clip-path="url(#p54b6f9abf8)" d="M 539.172414 34.56 
L 571.241379 34.56 
L 571.241379 65.622857 
L 539.172414 65.622857 
L 539.172414 34.56 
" style="fill:#f7af91;"/>
    <path clip-path="url(#p54b6f9abf8)" d="M 571.241379 34.56 
L 603.310345 34.56 
L 603.310345 65.622857 
L 571.241379 65.622857 
L 571.241379 34.56 
" style="fill:#5470de;"/>
    <path clip-path="url(#p54b6f9abf8)" d="M 410.896552 65.622857 
L 442.965517 65.622857 
L 442.965517 96.685714 
L 410.896552 96.685714 
L 410.896552 65.622857 
" style="fill:#3b4cc0;"/>
    <path clip-path="url(#p54b6f9abf8)" d="M 442.965517 65.622857 
L 475.034483 65.622857 
L 475.034483 96.685714 
L 442.965517 96.685714 
L 442.965517 65.622857 
" style="fill:#e0dbd8;"/>
    <path clip-path="url(#p54b6f9abf8)" d="M 475.034483 65.622857 
L 507.103448 65.622857 
L 507.103448 96.685714 
L 475.034483 96.685714 
L 475.034483 65.622857 
" style="fill:#f7a688;"/>
    <path clip-path="url(#p54b6f9abf8)" d="M 507.103448 65.622857 
L 539.172414 65.622857 
L 539.172414 96.685714 
L 507.103448 96.685714 
L 507.103448 65.622857 
" style="fill:#be242e;"/>
    <path clip-path="url(#p54b6f9abf8)" d="M 539.172414 65.622857 
L 571.241379 65.622857 
L 571.241379 96.685714 
L 539.172414 96.685714 
L 539.172414 65.622857 
" style="fill:#d1493f;"/>
    <path clip-path="url(#p54b6f9abf8)" d="M 571.241379 65.622857 
L 603.310345 65.622857 
L 603.310345 96.685714 
L 571.241379 96.685714 
L 571.241379 65.622857 
" style="fill:#5e7de7;"/>
    <path clip-path="url(#p54b6f9abf8)" d="M 410.896552 96.685714 
L 442.965517 96.685714 
L 442.965517 127.748571 
L 410.896552 127.748571 
L 410.896552 96.685714 
" style="fill:#3b4cc0;"/>
    <path clip-path="url(#p54b6f9abf8)" d="M 442.965517 96.685714 
L 475.034483 96.685714 
L 475.034483 127.748571 
L 442.965517 127.748571 
L 442.965517 96.685714 
" style="fill:#e1dad6;"/>
    <path clip-path="url(#p54b6f9abf8)" d="M 475.034483 96.685714 
L 507.103448 96.685714 
L 507.103448 127.748571 
L 475.034483 127.748571 
L 475.034483 96.685714 
" style="fill:#f59d7e;"/>
    <path clip-path="url(#p54b6f9abf8)" d="M 507.103448 96.685714 
L 539.172414 96.685714 
L 539.172414 127.748571 
L 507.103448 127.748571 
L 507.103448 96.685714 
" style="fill:#d24b40;"/>
    <path clip-path="url(#p54b6f9abf8)" d="M 539.172414 96.685714 
L 571.241379 96.685714 
L 571.241379 127.748571 
L 539.172414 127.748571 
L 539.172414 96.685714 
" style="fill:#c32e31;"/>
    <path clip-path="url(#p54b6f9abf8)" d="M 571.241379 96.685714 
L 603.310345 96.685714 
L 603.310345 127.748571 
L 571.241379 127.748571 
L 571.241379 96.685714 
" style="fill:#6e90f2;"/>
    <path clip-path="url(#p54b6f9abf8)" d="M 410.896552 127.748571 
L 442.965517 127.748571 
L 442.965517 158.811429 
L 410.896552 158.811429 
L 410.896552 127.748571 
" style="fill:#3b4cc0;"/>
    <path clip-path="url(#p54b6f9abf8)" d="M 442.965517 127.748571 
L 475.034483 127.748571 
L 475.034483 158.811429 
L 442.965517 158.811429 
L 442.965517 127.748571 
" style="fill:#dddcdc;"/>
    <path clip-path="url(#p54b6f9abf8)" d="M 475.034483 127.748571 
L 507.103448 127.748571 
L 507.103448 158.811429 
L 475.034483 158.811429 
L 475.034483 127.748571 
" style="fill:#f08b6e;"/>
    <path clip-path="url(#p54b6f9abf8)" d="M 507.103448 127.748571 
L 539.172414 127.748571 
L 539.172414 158.811429 
L 507.103448 158.811429 
L 507.103448 127.748571 
" style="fill:#b40426;"/>
    <path clip-path="url(#p54b6f9abf8)" d="M 539.172414 127.748571 
L 571.241379 127.748571 
L 571.241379 158.811429 
L 539.172414 158.811429 
L 539.172414 127.748571 
" style="fill:#d24b40;"/>
    <path clip-path="url(#p54b6f9abf8)" d="M 571.241379 127.748571 
L 603.310345 127.748571 
L 603.310345 158.811429 
L 571.241379 158.811429 
L 571.241379 127.748571 
" style="fill:#6180e9;"/>
    <path clip-path="url(#p54b6f9abf8)" d="M 410.896552 158.811429 
L 442.965517 158.811429 
L 442.965517 189.874286 
L 410.896552 189.874286 
L 410.896552 158.811429 
" style="fill:#3b4cc0;"/>
    <path clip-path="url(#p54b6f9abf8)" d="M 442.965517 158.811429 
L 475.034483 158.811429 
L 475.034483 189.874286 
L 442.965517 189.874286 
L 442.965517 158.811429 
" style="fill:#cad8ef;"/>
    <path clip-path="url(#p54b6f9abf8)" d="M 475.034483 158.811429 
L 507.103448 158.811429 
L 507.103448 189.874286 
L 475.034483 189.874286 
L 475.034483 158.811429 
" style="fill:#f08b6e;"/>
    <path clip-path="url(#p54b6f9abf8)" d="M 507.103448 158.811429 
L 539.172414 158.811429 
L 539.172414 189.874286 
L 507.103448 189.874286 
L 507.103448 158.811429 
" style="fill:#be242e;"/>
    <path clip-path="url(#p54b6f9abf8)" d="M 539.172414 158.811429 
L 571.241379 158.811429 
L 571.241379 189.874286 
L 539.172414 189.874286 
L 539.172414 158.811429 
" style="fill:#f08b6e;"/>
    <path clip-path="url(#p54b6f9abf8)" d="M 571.241379 158.811429 
L 603.310345 158.811429 
L 603.310345 189.874286 
L 571.241379 189.874286 
L 571.241379 158.811429 
" style="fill:#536edd;"/>
    <path clip-path="url(#p54b6f9abf8)" d="M 410.896552 189.874286 
L 442.965517 189.874286 
L 442.965517 220.937143 
L 410.896552 220.937143 
L 410.896552 189.874286 
" style="fill:#3b4cc0;"/>
    <path clip-path="url(#p54b6f9abf8)" d="M 442.965517 189.874286 
L 475.034483 189.874286 
L 475.034483 220.937143 
L 442.965517 220.937143 
L 442.965517 189.874286 
" style="fill:#455cce;"/>
    <path clip-path="url(#p54b6f9abf8)" d="M 475.034483 189.874286 
L 507.103448 189.874286 
L 507.103448 220.937143 
L 475.034483 220.937143 
L 475.034483 189.874286 
" style="fill:#90b2fe;"/>
    <path clip-path="url(#p54b6f9abf8)" d="M 507.103448 189.874286 
L 539.172414 189.874286 
L 539.172414 220.937143 
L 507.103448 220.937143 
L 507.103448 189.874286 
" style="fill:#d5dbe5;"/>
    <path clip-path="url(#p54b6f9abf8)" d="M 539.172414 189.874286 
L 571.241379 189.874286 
L 571.241379 220.937143 
L 539.172414 220.937143 
L 539.172414 189.874286 
" style="fill:#9ebeff;"/>
    <path clip-path="url(#p54b6f9abf8)" d="M 571.241379 189.874286 
L 603.310345 189.874286 
L 603.310345 220.937143 
L 571.241379 220.937143 
L 571.241379 189.874286 
" style="fill:#4e68d8;"/>
    <path clip-path="url(#p54b6f9abf8)" d="M 410.896552 220.937143 
L 442.965517 220.937143 
L 442.965517 252 
L 410.896552 252 
L 410.896552 220.937143 
" style="fill:#3b4cc0;"/>
    <path clip-path="url(#p54b6f9abf8)" d="M 442.965517 220.937143 
L 475.034483 220.937143 
L 475.034483 252 
L 442.965517 252 
L 442.965517 220.937143 
" style="fill:#4055c8;"/>
    <path clip-path="url(#p54b6f9abf8)" d="M 475.034483 220.937143 
L 507.103448 220.937143 
L 507.103448 252 
L 475.034483 252 
L 475.034483 220.937143 
" style="fill:#92b4fe;"/>
    <path clip-path="url(#p54b6f9abf8)" d="M 507.103448 220.937143 
L 539.172414 220.937143 
L 539.172414 252 
L 507.103448 252 
L 507.103448 220.937143 
" style="fill:#c4d5f3;"/>
    <path clip-path="url(#p54b6f9abf8)" d="M 539.172414 220.937143 
L 571.241379 220.937143 
L 571.241379 252 
L 539.172414 252 
L 539.172414 220.937143 
" style="fill:#86a9fc;"/>
    <path clip-path="url(#p54b6f9abf8)" d="M 571.241379 220.937143 
L 603.310345 220.937143 
L 603.310345 252 
L 571.241379 252 
L 571.241379 220.937143 
" style="fill:#465ecf;"/>
   </g>
   <g id="matplotlib.axis_3">
    <g id="xtick_7">
     <g id="line2d_14">
      <g>
       <use style="stroke:#000000;stroke-width:0.8;" x="426.931034" xlink:href="#m8080195d30" y="252"/>
      </g>
     </g>
     <g id="text_15">
      <!-- 0h -->
      <g transform="translate(420.581034 266.598437)scale(0.1 -0.1)">
       <use xlink:href="#DejaVuSans-30"/>
       <use x="63.623047" xlink:href="#DejaVuSans-68"/>
      </g>
     </g>
    </g>
    <g id="xtick_8">
     <g id="line2d_15">
      <g>
       <use style="stroke:#000000;stroke-width:0.8;" x="459" xlink:href="#m8080195d30" y="252"/>
      </g>
     </g>
     <g id="text_16">
      <!-- 4h -->
      <g transform="translate(452.65 266.598437)scale(0.1 -0.1)">
       <use xlink:href="#DejaVuSans-34"/>
       <use x="63.623047" xlink:href="#DejaVuSans-68"/>
      </g>
     </g>
    </g>
    <g id="xtick_9">
     <g id="line2d_16">
      <g>
       <use style="stroke:#000000;stroke-width:0.8;" x="491.068966" xlink:href="#m8080195d30" y="252"/>
      </g>
     </g>
     <g id="text_17">
      <!-- 8h -->
      <g transform="translate(484.718966 266.598437)scale(0.1 -0.1)">
       <use xlink:href="#DejaVuSans-38"/>
       <use x="63.623047" xlink:href="#DejaVuSans-68"/>
      </g>
     </g>
    </g>
    <g id="xtick_10">
     <g id="line2d_17">
      <g>
       <use style="stroke:#000000;stroke-width:0.8;" x="523.137931" xlink:href="#m8080195d30" y="252"/>
      </g>
     </g>
     <g id="text_18">
      <!-- 12h -->
      <g transform="translate(513.606681 266.598437)scale(0.1 -0.1)">
       <use xlink:href="#DejaVuSans-31"/>
       <use x="63.623047" xlink:href="#DejaVuSans-32"/>
       <use x="127.246094" xlink:href="#DejaVuSans-68"/>
      </g>
     </g>
    </g>
    <g id="xtick_11">
     <g id="line2d_18">
      <g>
       <use style="stroke:#000000;stroke-width:0.8;" x="555.206897" xlink:href="#m8080195d30" y="252"/>
      </g>
     </g>
     <g id="text_19">
      <!-- 16h -->
      <g transform="translate(545.675647 266.598437)scale(0.1 -0.1)">
       <use xlink:href="#DejaVuSans-31"/>
       <use x="63.623047" xlink:href="#DejaVuSans-36"/>
       <use x="127.246094" xlink:href="#DejaVuSans-68"/>
      </g>
     </g>
    </g>
    <g id="xtick_12">
     <g id="line2d_19">
      <g>
       <use style="stroke:#000000;stroke-width:0.8;" x="587.275862" xlink:href="#m8080195d30" y="252"/>
      </g>
     </g>
     <g id="text_20">
      <!-- 20h -->
      <g transform="translate(577.744612 266.598437)scale(0.1 -0.1)">
       <use xlink:href="#DejaVuSans-32"/>
       <use x="63.623047" xlink:href="#DejaVuSans-30"/>
       <use x="127.246094" xlink:href="#DejaVuSans-68"/>
      </g>
     </g>
    </g>
   </g>
   <g id="matplotlib.axis_4"/>
   <g id="text_21">
    <!-- 81 ST-MUSEUM -->
    <defs>
     <path d="M 4.890625 31.390625 
L 31.203125 31.390625 
L 31.203125 23.390625 
L 4.890625 23.390625 
z
" id="DejaVuSans-2d"/>
     <path d="M 8.6875 72.90625 
L 18.609375 72.90625 
L 18.609375 28.609375 
Q 18.609375 16.890625 22.84375 11.734375 
Q 27.09375 6.59375 36.625 6.59375 
Q 46.09375 6.59375 50.34375 11.734375 
Q 54.59375 16.890625 54.59375 28.609375 
L 54.59375 72.90625 
L 64.5 72.90625 
L 64.5 27.390625 
Q 64.5 13.140625 57.4375 5.859375 
Q 50.390625 -1.421875 36.625 -1.421875 
Q 22.796875 -1.421875 15.734375 5.859375 
Q 8.6875 13.140625 8.6875 27.390625 
z
" id="DejaVuSans-55"/>
     <path d="M 9.8125 72.90625 
L 55.90625 72.90625 
L 55.90625 64.59375 
L 19.671875 64.59375 
L 19.671875 43.015625 
L 54.390625 43.015625 
L 54.390625 34.71875 
L 19.671875 34.71875 
L 19.671875 8.296875 
L 56.78125 8.296875 
L 56.78125 0 
L 9.8125 0 
z
" id="DejaVuSans-45"/>
    </defs>
    <g transform="translate(445.892198 28.56)scale(0.16 -0.16)">
     <use xlink:href="#DejaVuSans-38"/>
     <use x="63.623047" xlink:href="#DejaVuSans-31"/>
     <use x="127.246094" xlink:href="#DejaVuSans-20"/>
     <use x="159.033203" xlink:href="#DejaVuSans-53"/>
     <use x="222.509766" xlink:href="#DejaVuSans-54"/>
     <use x="283.453125" xlink:href="#DejaVuSans-2d"/>
     <use x="319.537109" xlink:href="#DejaVuSans-4d"/>
     <use x="405.816406" xlink:href="#DejaVuSans-55"/>
     <use x="479.009766" xlink:href="#DejaVuSans-53"/>
     <use x="542.486328" xlink:href="#DejaVuSans-45"/>
     <use x="605.669922" xlink:href="#DejaVuSans-55"/>
     <use x="678.863281" xlink:href="#DejaVuSans-4d"/>
    </g>
   </g>
  </g>
  <g id="axes_3">
   <g id="patch_4">
    <path d="M 641.793103 252 
L 834.206897 252 
L 834.206897 34.56 
L 641.793103 34.56 
z
" style="fill:none;"/>
   </g>
   <g id="QuadMesh_3">
    <path clip-path="url(#pac6eca05b8)" d="M 641.793103 34.56 
L 673.862069 34.56 
L 673.862069 65.622857 
L 641.793103 65.622857 
L 641.793103 34.56 
" style="fill:#3b4cc0;"/>
    <path clip-path="url(#pac6eca05b8)" d="M 673.862069 34.56 
L 705.931034 34.56 
L 705.931034 65.622857 
L 673.862069 65.622857 
L 673.862069 34.56 
" style="fill:#f2cab5;"/>
    <path clip-path="url(#pac6eca05b8)" d="M 705.931034 34.56 
L 738 34.56 
L 738 65.622857 
L 705.931034 65.622857 
L 705.931034 34.56 
" style="fill:#dddcdc;"/>
    <path clip-path="url(#pac6eca05b8)" d="M 738 34.56 
L 770.068966 34.56 
L 770.068966 65.622857 
L 738 65.622857 
L 738 34.56 
" style="fill:#f6bea4;"/>
    <path clip-path="url(#pac6eca05b8)" d="M 770.068966 34.56 
L 802.137931 34.56 
L 802.137931 65.622857 
L 770.068966 65.622857 
L 770.068966 34.56 
" style="fill:#ee8468;"/>
    <path clip-path="url(#pac6eca05b8)" d="M 802.137931 34.56 
L 834.206897 34.56 
L 834.206897 65.622857 
L 802.137931 65.622857 
L 802.137931 34.56 
" style="fill:#7093f3;"/>
    <path clip-path="url(#pac6eca05b8)" d="M 641.793103 65.622857 
L 673.862069 65.622857 
L 673.862069 96.685714 
L 641.793103 96.685714 
L 641.793103 65.622857 
" style="fill:#3b4cc0;"/>
    <path clip-path="url(#pac6eca05b8)" d="M 673.862069 65.622857 
L 705.931034 65.622857 
L 705.931034 96.685714 
L 673.862069 96.685714 
L 673.862069 65.622857 
" style="fill:#f08b6e;"/>
    <path clip-path="url(#pac6eca05b8)" d="M 705.931034 65.622857 
L 738 65.622857 
L 738 96.685714 
L 705.931034 96.685714 
L 705.931034 65.622857 
" style="fill:#f5c1a9;"/>
    <path clip-path="url(#pac6eca05b8)" d="M 738 65.622857 
L 770.068966 65.622857 
L 770.068966 96.685714 
L 738 96.685714 
L 738 65.622857 
" style="fill:#f08b6e;"/>
    <path clip-path="url(#pac6eca05b8)" d="M 770.068966 65.622857 
L 802.137931 65.622857 
L 802.137931 96.685714 
L 770.068966 96.685714 
L 770.068966 65.622857 
" style="fill:#b8122a;"/>
    <path clip-path="url(#pac6eca05b8)" d="M 802.137931 65.622857 
L 834.206897 65.622857 
L 834.206897 96.685714 
L 802.137931 96.685714 
L 802.137931 65.622857 
" style="fill:#81a4fb;"/>
    <path clip-path="url(#pac6eca05b8)" d="M 641.793103 96.685714 
L 673.862069 96.685714 
L 673.862069 127.748571 
L 641.793103 127.748571 
L 641.793103 96.685714 
" style="fill:#3b4cc0;"/>
    <path clip-path="url(#pac6eca05b8)" d="M 673.862069 96.685714 
L 705.931034 96.685714 
L 705.931034 127.748571 
L 673.862069 127.748571 
L 673.862069 96.685714 
" style="fill:#ef886b;"/>
    <path clip-path="url(#pac6eca05b8)" d="M 705.931034 96.685714 
L 738 96.685714 
L 738 127.748571 
L 705.931034 127.748571 
L 705.931034 96.685714 
" style="fill:#f7b99e;"/>
    <path clip-path="url(#pac6eca05b8)" d="M 738 96.685714 
L 770.068966 96.685714 
L 770.068966 127.748571 
L 738 127.748571 
L 738 96.685714 
" style="fill:#ee8669;"/>
    <path clip-path="url(#pac6eca05b8)" d="M 770.068966 96.685714 
L 802.137931 96.685714 
L 802.137931 127.748571 
L 770.068966 127.748571 
L 770.068966 96.685714 
" style="fill:#b40426;"/>
    <path clip-path="url(#pac6eca05b8)" d="M 802.137931 96.685714 
L 834.206897 96.685714 
L 834.206897 127.748571 
L 802.137931 127.748571 
L 802.137931 96.685714 
" style="fill:#86a9fc;"/>
    <path clip-path="url(#pac6eca05b8)" d="M 641.793103 127.748571 
L 673.862069 127.748571 
L 673.862069 158.811429 
L 641.793103 158.811429 
L 641.793103 127.748571 
" style="fill:#3b4cc0;"/>
    <path clip-path="url(#pac6eca05b8)" d="M 673.862069 127.748571 
L 705.931034 127.748571 
L 705.931034 158.811429 
L 673.862069 158.811429 
L 673.862069 127.748571 
" style="fill:#f18f71;"/>
    <path clip-path="url(#pac6eca05b8)" d="M 705.931034 127.748571 
L 738 127.748571 
L 738 158.811429 
L 705.931034 158.811429 
L 705.931034 127.748571 
" style="fill:#f6bea4;"/>
    <path clip-path="url(#pac6eca05b8)" d="M 738 127.748571 
L 770.068966 127.748571 
L 770.068966 158.811429 
L 738 158.811429 
L 738 127.748571 
" style="fill:#ee8669;"/>
    <path clip-path="url(#pac6eca05b8)" d="M 770.068966 127.748571 
L 802.137931 127.748571 
L 802.137931 158.811429 
L 770.068966 158.811429 
L 770.068966 127.748571 
" style="fill:#ba162b;"/>
    <path clip-path="url(#pac6eca05b8)" d="M 802.137931 127.748571 
L 834.206897 127.748571 
L 834.206897 158.811429 
L 802.137931 158.811429 
L 802.137931 127.748571 
" style="fill:#89acfd;"/>
    <path clip-path="url(#pac6eca05b8)" d="M 641.793103 158.811429 
L 673.862069 158.811429 
L 673.862069 189.874286 
L 641.793103 189.874286 
L 641.793103 158.811429 
" style="fill:#3b4cc0;"/>
    <path clip-path="url(#pac6eca05b8)" d="M 673.862069 158.811429 
L 705.931034 158.811429 
L 705.931034 189.874286 
L 673.862069 189.874286 
L 673.862069 158.811429 
" style="fill:#f7ac8e;"/>
    <path clip-path="url(#pac6eca05b8)" d="M 705.931034 158.811429 
L 738 158.811429 
L 738 189.874286 
L 705.931034 189.874286 
L 705.931034 158.811429 
" style="fill:#f5c1a9;"/>
    <path clip-path="url(#pac6eca05b8)" d="M 738 158.811429 
L 770.068966 158.811429 
L 770.068966 189.874286 
L 738 189.874286 
L 738 158.811429 
" style="fill:#e9785d;"/>
    <path clip-path="url(#pac6eca05b8)" d="M 770.068966 158.811429 
L 802.137931 158.811429 
L 802.137931 189.874286 
L 770.068966 189.874286 
L 770.068966 158.811429 
" style="fill:#ef886b;"/>
    <path clip-path="url(#pac6eca05b8)" d="M 802.137931 158.811429 
L 834.206897 158.811429 
L 834.206897 189.874286 
L 802.137931 189.874286 
L 802.137931 158.811429 
" style="fill:#7093f3;"/>
    <path clip-path="url(#pac6eca05b8)" d="M 641.793103 189.874286 
L 673.862069 189.874286 
L 673.862069 220.937143 
L 641.793103 220.937143 
L 641.793103 189.874286 
" style="fill:#3e51c5;"/>
    <path clip-path="url(#pac6eca05b8)" d="M 673.862069 189.874286 
L 705.931034 189.874286 
L 705.931034 220.937143 
L 673.862069 220.937143 
L 673.862069 189.874286 
" style="fill:#6282ea;"/>
    <path clip-path="url(#pac6eca05b8)" d="M 705.931034 189.874286 
L 738 189.874286 
L 738 220.937143 
L 705.931034 220.937143 
L 705.931034 189.874286 
" style="fill:#abc8fd;"/>
    <path clip-path="url(#pac6eca05b8)" d="M 738 189.874286 
L 770.068966 189.874286 
L 770.068966 220.937143 
L 738 220.937143 
L 738 189.874286 
" style="fill:#ccd9ed;"/>
    <path clip-path="url(#pac6eca05b8)" d="M 770.068966 189.874286 
L 802.137931 189.874286 
L 802.137931 220.937143 
L 770.068966 220.937143 
L 770.068966 189.874286 
" style="fill:#bcd2f7;"/>
    <path clip-path="url(#pac6eca05b8)" d="M 802.137931 189.874286 
L 834.206897 189.874286 
L 834.206897 220.937143 
L 802.137931 220.937143 
L 802.137931 189.874286 
" style="fill:#799cf8;"/>
    <path clip-path="url(#pac6eca05b8)" d="M 641.793103 220.937143 
L 673.862069 220.937143 
L 673.862069 252 
L 641.793103 252 
L 641.793103 220.937143 
" style="fill:#3d50c3;"/>
    <path clip-path="url(#pac6eca05b8)" d="M 673.862069 220.937143 
L 705.931034 220.937143 
L 705.931034 252 
L 673.862069 252 
L 673.862069 220.937143 
" style="fill:#536edd;"/>
    <path clip-path="url(#pac6eca05b8)" d="M 705.931034 220.937143 
L 738 220.937143 
L 738 252 
L 705.931034 252 
L 705.931034 220.937143 
" style="fill:#96b7ff;"/>
    <path clip-path="url(#pac6eca05b8)" d="M 738 220.937143 
L 770.068966 220.937143 
L 770.068966 252 
L 738 252 
L 738 220.937143 
" style="fill:#c1d4f4;"/>
    <path clip-path="url(#pac6eca05b8)" d="M 770.068966 220.937143 
L 802.137931 220.937143 
L 802.137931 252 
L 770.068966 252 
L 770.068966 220.937143 
" style="fill:#a9c6fd;"/>
    <path clip-path="url(#pac6eca05b8)" d="M 802.137931 220.937143 
L 834.206897 220.937143 
L 834.206897 252 
L 802.137931 252 
L 802.137931 220.937143 
" style="fill:#6282ea;"/>
   </g>
   <g id="matplotlib.axis_5">
    <g id="xtick_13">
     <g id="line2d_20">
      <g>
       <use style="stroke:#000000;stroke-width:0.8;" x="657.827586" xlink:href="#m8080195d30" y="252"/>
      </g>
     </g>
     <g id="text_22">
      <!-- 0h -->
      <g transform="translate(651.477586 266.598437)scale(0.1 -0.1)">
       <use xlink:href="#DejaVuSans-30"/>
       <use x="63.623047" xlink:href="#DejaVuSans-68"/>
      </g>
     </g>
    </g>
    <g id="xtick_14">
     <g id="line2d_21">
      <g>
       <use style="stroke:#000000;stroke-width:0.8;" x="689.896552" xlink:href="#m8080195d30" y="252"/>
      </g>
     </g>
     <g id="text_23">
      <!-- 4h -->
      <g transform="translate(683.546552 266.598437)scale(0.1 -0.1)">
       <use xlink:href="#DejaVuSans-34"/>
       <use x="63.623047" xlink:href="#DejaVuSans-68"/>
      </g>
     </g>
    </g>
    <g id="xtick_15">
     <g id="line2d_22">
      <g>
       <use style="stroke:#000000;stroke-width:0.8;" x="721.965517" xlink:href="#m8080195d30" y="252"/>
      </g>
     </g>
     <g id="text_24">
      <!-- 8h -->
      <g transform="translate(715.615517 266.598437)scale(0.1 -0.1)">
       <use xlink:href="#DejaVuSans-38"/>
       <use x="63.623047" xlink:href="#DejaVuSans-68"/>
      </g>
     </g>
    </g>
    <g id="xtick_16">
     <g id="line2d_23">
      <g>
       <use style="stroke:#000000;stroke-width:0.8;" x="754.034483" xlink:href="#m8080195d30" y="252"/>
      </g>
     </g>
     <g id="text_25">
      <!-- 12h -->
      <g transform="translate(744.503233 266.598437)scale(0.1 -0.1)">
       <use xlink:href="#DejaVuSans-31"/>
       <use x="63.623047" xlink:href="#DejaVuSans-32"/>
       <use x="127.246094" xlink:href="#DejaVuSans-68"/>
      </g>
     </g>
    </g>
    <g id="xtick_17">
     <g id="line2d_24">
      <g>
       <use style="stroke:#000000;stroke-width:0.8;" x="786.103448" xlink:href="#m8080195d30" y="252"/>
      </g>
     </g>
     <g id="text_26">
      <!-- 16h -->
      <g transform="translate(776.572198 266.598437)scale(0.1 -0.1)">
       <use xlink:href="#DejaVuSans-31"/>
       <use x="63.623047" xlink:href="#DejaVuSans-36"/>
       <use x="127.246094" xlink:href="#DejaVuSans-68"/>
      </g>
     </g>
    </g>
    <g id="xtick_18">
     <g id="line2d_25">
      <g>
       <use style="stroke:#000000;stroke-width:0.8;" x="818.172414" xlink:href="#m8080195d30" y="252"/>
      </g>
     </g>
     <g id="text_27">
      <!-- 20h -->
      <g transform="translate(808.641164 266.598437)scale(0.1 -0.1)">
       <use xlink:href="#DejaVuSans-32"/>
       <use x="63.623047" xlink:href="#DejaVuSans-30"/>
       <use x="127.246094" xlink:href="#DejaVuSans-68"/>
      </g>
     </g>
    </g>
   </g>
   <g id="matplotlib.axis_6"/>
   <g id="text_28">
    <!-- 72 ST-2 AVE -->
    <defs>
     <path d="M 8.203125 72.90625 
L 55.078125 72.90625 
L 55.078125 68.703125 
L 28.609375 0 
L 18.3125 0 
L 43.21875 64.59375 
L 8.203125 64.59375 
z
" id="DejaVuSans-37"/>
     <path d="M 34.1875 63.1875 
L 20.796875 26.90625 
L 47.609375 26.90625 
z
M 28.609375 72.90625 
L 39.796875 72.90625 
L 67.578125 0 
L 57.328125 0 
L 50.6875 18.703125 
L 17.828125 18.703125 
L 11.1875 0 
L 0.78125 0 
z
" id="DejaVuSans-41"/>
     <path d="M 28.609375 0 
L 0.78125 72.90625 
L 11.078125 72.90625 
L 34.1875 11.53125 
L 57.328125 72.90625 
L 67.578125 72.90625 
L 39.796875 0 
z
" id="DejaVuSans-56"/>
    </defs>
    <g transform="translate(688.8125 28.56)scale(0.16 -0.16)">
     <use xlink:href="#DejaVuSans-37"/>
     <use x="63.623047" xlink:href="#DejaVuSans-32"/>
     <use x="127.246094" xlink:href="#DejaVuSans-20"/>
     <use x="159.033203" xlink:href="#DejaVuSans-53"/>
     <use x="222.509766" xlink:href="#DejaVuSans-54"/>
     <use x="283.453125" xlink:href="#DejaVuSans-2d"/>
     <use x="319.537109" xlink:href="#DejaVuSans-32"/>
     <use x="383.160156" xlink:href="#DejaVuSans-20"/>
     <use x="414.947266" xlink:href="#DejaVuSans-41"/>
     <use x="483.261719" xlink:href="#DejaVuSans-56"/>
     <use x="551.669922" xlink:href="#DejaVuSans-45"/>
    </g>
   </g>
  </g>
  <g id="axes_4">
   <g id="patch_5">
    <path d="M 872.689655 252 
L 1065.103448 252 
L 1065.103448 34.56 
L 872.689655 34.56 
z
" style="fill:none;"/>
   </g>
   <g id="QuadMesh_4">
    <path clip-path="url(#p90f2578d50)" d="M 872.689655 34.56 
L 904.758621 34.56 
L 904.758621 65.622857 
L 872.689655 65.622857 
L 872.689655 34.56 
" style="fill:#3b4cc0;"/>
    <path clip-path="url(#p90f2578d50)" d="M 904.758621 34.56 
L 936.827586 34.56 
L 936.827586 65.622857 
L 904.758621 65.622857 
L 904.758621 34.56 
" style="fill:#f5c0a7;"/>
    <path clip-path="url(#p90f2578d50)" d="M 936.827586 34.56 
L 968.896552 34.56 
L 968.896552 65.622857 
L 936.827586 65.622857 
L 936.827586 34.56 
" style="fill:#edd2c3;"/>
    <path clip-path="url(#p90f2578d50)" d="M 968.896552 34.56 
L 1000.965517 34.56 
L 1000.965517 65.622857 
L 968.896552 65.622857 
L 968.896552 34.56 
" style="fill:#f2cbb7;"/>
    <path clip-path="url(#p90f2578d50)" d="M 1000.965517 34.56 
L 1033.034483 34.56 
L 1033.034483 65.622857 
L 1000.965517 65.622857 
L 1000.965517 34.56 
" style="fill:#e7745b;"/>
    <path clip-path="url(#p90f2578d50)" d="M 1033.034483 34.56 
L 1065.103448 34.56 
L 1065.103448 65.622857 
L 1033.034483 65.622857 
L 1033.034483 34.56 
" style="fill:#85a8fc;"/>
    <path clip-path="url(#p90f2578d50)" d="M 872.689655 65.622857 
L 904.758621 65.622857 
L 904.758621 96.685714 
L 872.689655 96.685714 
L 872.689655 65.622857 
" style="fill:#3b4cc0;"/>
    <path clip-path="url(#p90f2578d50)" d="M 904.758621 65.622857 
L 936.827586 65.622857 
L 936.827586 96.685714 
L 904.758621 96.685714 
L 904.758621 65.622857 
" style="fill:#e57058;"/>
    <path clip-path="url(#p90f2578d50)" d="M 936.827586 65.622857 
L 968.896552 65.622857 
L 968.896552 96.685714 
L 936.827586 96.685714 
L 936.827586 65.622857 
" style="fill:#f7b89c;"/>
    <path clip-path="url(#p90f2578d50)" d="M 968.896552 65.622857 
L 1000.965517 65.622857 
L 1000.965517 96.685714 
L 968.896552 96.685714 
L 968.896552 65.622857 
" style="fill:#f7b89c;"/>
    <path clip-path="url(#p90f2578d50)" d="M 1000.965517 65.622857 
L 1033.034483 65.622857 
L 1033.034483 96.685714 
L 1000.965517 96.685714 
L 1000.965517 65.622857 
" style="fill:#b8122a;"/>
    <path clip-path="url(#p90f2578d50)" d="M 1033.034483 65.622857 
L 1065.103448 65.622857 
L 1065.103448 96.685714 
L 1033.034483 96.685714 
L 1033.034483 65.622857 
" style="fill:#9dbdff;"/>
    <path clip-path="url(#p90f2578d50)" d="M 872.689655 96.685714 
L 904.758621 96.685714 
L 904.758621 127.748571 
L 872.689655 127.748571 
L 872.689655 96.685714 
" style="fill:#3b4cc0;"/>
    <path clip-path="url(#p90f2578d50)" d="M 904.758621 96.685714 
L 936.827586 96.685714 
L 936.827586 127.748571 
L 904.758621 127.748571 
L 904.758621 96.685714 
" style="fill:#c83836;"/>
    <path clip-path="url(#p90f2578d50)" d="M 936.827586 96.685714 
L 968.896552 96.685714 
L 968.896552 127.748571 
L 936.827586 127.748571 
L 936.827586 96.685714 
" style="fill:#f3c8b2;"/>
    <path clip-path="url(#p90f2578d50)" d="M 968.896552 96.685714 
L 1000.965517 96.685714 
L 1000.965517 127.748571 
L 968.896552 127.748571 
L 968.896552 96.685714 
" style="fill:#f7b79b;"/>
    <path clip-path="url(#p90f2578d50)" d="M 1000.965517 96.685714 
L 1033.034483 96.685714 
L 1033.034483 127.748571 
L 1000.965517 127.748571 
L 1000.965517 96.685714 
" style="fill:#b40426;"/>
    <path clip-path="url(#p90f2578d50)" d="M 1033.034483 96.685714 
L 1065.103448 96.685714 
L 1065.103448 127.748571 
L 1033.034483 127.748571 
L 1033.034483 96.685714 
" style="fill:#a5c3fe;"/>
    <path clip-path="url(#p90f2578d50)" d="M 872.689655 127.748571 
L 904.758621 127.748571 
L 904.758621 158.811429 
L 872.689655 158.811429 
L 872.689655 127.748571 
" style="fill:#3c4ec2;"/>
    <path clip-path="url(#p90f2578d50)" d="M 904.758621 127.748571 
L 936.827586 127.748571 
L 936.827586 158.811429 
L 904.758621 158.811429 
L 904.758621 127.748571 
" style="fill:#e97a5f;"/>
    <path clip-path="url(#p90f2578d50)" d="M 936.827586 127.748571 
L 968.896552 127.748571 
L 968.896552 158.811429 
L 936.827586 158.811429 
L 936.827586 127.748571 
" style="fill:#f7ad90;"/>
    <path clip-path="url(#p90f2578d50)" d="M 968.896552 127.748571 
L 1000.965517 127.748571 
L 1000.965517 158.811429 
L 968.896552 158.811429 
L 968.896552 127.748571 
" style="fill:#f7b396;"/>
    <path clip-path="url(#p90f2578d50)" d="M 1000.965517 127.748571 
L 1033.034483 127.748571 
L 1033.034483 158.811429 
L 1000.965517 158.811429 
L 1000.965517 127.748571 
" style="fill:#bb1b2c;"/>
    <path clip-path="url(#p90f2578d50)" d="M 1033.034483 127.748571 
L 1065.103448 127.748571 
L 1065.103448 158.811429 
L 1033.034483 158.811429 
L 1033.034483 127.748571 
" style="fill:#a7c5fe;"/>
    <path clip-path="url(#p90f2578d50)" d="M 872.689655 158.811429 
L 904.758621 158.811429 
L 904.758621 189.874286 
L 872.689655 189.874286 
L 872.689655 158.811429 
" style="fill:#3d50c3;"/>
    <path clip-path="url(#p90f2578d50)" d="M 904.758621 158.811429 
L 936.827586 158.811429 
L 936.827586 189.874286 
L 904.758621 189.874286 
L 904.758621 158.811429 
" style="fill:#f7a688;"/>
    <path clip-path="url(#p90f2578d50)" d="M 936.827586 158.811429 
L 968.896552 158.811429 
L 968.896552 189.874286 
L 936.827586 189.874286 
L 936.827586 158.811429 
" style="fill:#f7b396;"/>
    <path clip-path="url(#p90f2578d50)" d="M 968.896552 158.811429 
L 1000.965517 158.811429 
L 1000.965517 189.874286 
L 968.896552 189.874286 
L 968.896552 158.811429 
" style="fill:#f29274;"/>
    <path clip-path="url(#p90f2578d50)" d="M 1000.965517 158.811429 
L 1033.034483 158.811429 
L 1033.034483 189.874286 
L 1000.965517 189.874286 
L 1000.965517 158.811429 
" style="fill:#e16751;"/>
    <path clip-path="url(#p90f2578d50)" d="M 1033.034483 158.811429 
L 1065.103448 158.811429 
L 1065.103448 189.874286 
L 1033.034483 189.874286 
L 1033.034483 158.811429 
" style="fill:#8badfd;"/>
    <path clip-path="url(#p90f2578d50)" d="M 872.689655 189.874286 
L 904.758621 189.874286 
L 904.758621 220.937143 
L 872.689655 220.937143 
L 872.689655 189.874286 
" style="fill:#4358cb;"/>
    <path clip-path="url(#p90f2578d50)" d="M 904.758621 189.874286 
L 936.827586 189.874286 
L 936.827586 220.937143 
L 904.758621 220.937143 
L 904.758621 189.874286 
" style="fill:#6485ec;"/>
    <path clip-path="url(#p90f2578d50)" d="M 936.827586 189.874286 
L 968.896552 189.874286 
L 968.896552 220.937143 
L 936.827586 220.937143 
L 936.827586 189.874286 
" style="fill:#e8d6cc;"/>
    <path clip-path="url(#p90f2578d50)" d="M 968.896552 189.874286 
L 1000.965517 189.874286 
L 1000.965517 220.937143 
L 968.896552 220.937143 
L 968.896552 189.874286 
" style="fill:#f6bea4;"/>
    <path clip-path="url(#p90f2578d50)" d="M 1000.965517 189.874286 
L 1033.034483 189.874286 
L 1033.034483 220.937143 
L 1000.965517 220.937143 
L 1000.965517 189.874286 
" style="fill:#f3c8b2;"/>
    <path clip-path="url(#p90f2578d50)" d="M 1033.034483 189.874286 
L 1065.103448 189.874286 
L 1065.103448 220.937143 
L 1033.034483 220.937143 
L 1033.034483 189.874286 
" style="fill:#a2c1ff;"/>
    <path clip-path="url(#p90f2578d50)" d="M 872.689655 220.937143 
L 904.758621 220.937143 
L 904.758621 252 
L 872.689655 252 
L 872.689655 220.937143 
" style="fill:#4358cb;"/>
    <path clip-path="url(#p90f2578d50)" d="M 904.758621 220.937143 
L 936.827586 220.937143 
L 936.827586 252 
L 904.758621 252 
L 904.758621 220.937143 
" style="fill:#506bda;"/>
    <path clip-path="url(#p90f2578d50)" d="M 936.827586 220.937143 
L 968.896552 220.937143 
L 968.896552 252 
L 936.827586 252 
L 936.827586 220.937143 
" style="fill:#cfdaea;"/>
    <path clip-path="url(#p90f2578d50)" d="M 968.896552 220.937143 
L 1000.965517 220.937143 
L 1000.965517 252 
L 968.896552 252 
L 968.896552 220.937143 
" style="fill:#f2c9b4;"/>
    <path clip-path="url(#p90f2578d50)" d="M 1000.965517 220.937143 
L 1033.034483 220.937143 
L 1033.034483 252 
L 1000.965517 252 
L 1000.965517 220.937143 
" style="fill:#d8dce2;"/>
    <path clip-path="url(#p90f2578d50)" d="M 1033.034483 220.937143 
L 1065.103448 220.937143 
L 1065.103448 252 
L 1033.034483 252 
L 1033.034483 220.937143 
" style="fill:#799cf8;"/>
   </g>
   <g id="matplotlib.axis_7">
    <g id="xtick_19">
     <g id="line2d_26">
      <g>
       <use style="stroke:#000000;stroke-width:0.8;" x="888.724138" xlink:href="#m8080195d30" y="252"/>
      </g>
     </g>
     <g id="text_29">
      <!-- 0h -->
      <g transform="translate(882.374138 266.598437)scale(0.1 -0.1)">
       <use xlink:href="#DejaVuSans-30"/>
       <use x="63.623047" xlink:href="#DejaVuSans-68"/>
      </g>
     </g>
    </g>
    <g id="xtick_20">
     <g id="line2d_27">
      <g>
       <use style="stroke:#000000;stroke-width:0.8;" x="920.793103" xlink:href="#m8080195d30" y="252"/>
      </g>
     </g>
     <g id="text_30">
      <!-- 4h -->
      <g transform="translate(914.443103 266.598437)scale(0.1 -0.1)">
       <use xlink:href="#DejaVuSans-34"/>
       <use x="63.623047" xlink:href="#DejaVuSans-68"/>
      </g>
     </g>
    </g>
    <g id="xtick_21">
     <g id="line2d_28">
      <g>
       <use style="stroke:#000000;stroke-width:0.8;" x="952.862069" xlink:href="#m8080195d30" y="252"/>
      </g>
     </g>
     <g id="text_31">
      <!-- 8h -->
      <g transform="translate(946.512069 266.598437)scale(0.1 -0.1)">
       <use xlink:href="#DejaVuSans-38"/>
       <use x="63.623047" xlink:href="#DejaVuSans-68"/>
      </g>
     </g>
    </g>
    <g id="xtick_22">
     <g id="line2d_29">
      <g>
       <use style="stroke:#000000;stroke-width:0.8;" x="984.931034" xlink:href="#m8080195d30" y="252"/>
      </g>
     </g>
     <g id="text_32">
      <!-- 12h -->
      <g transform="translate(975.399784 266.598437)scale(0.1 -0.1)">
       <use xlink:href="#DejaVuSans-31"/>
       <use x="63.623047" xlink:href="#DejaVuSans-32"/>
       <use x="127.246094" xlink:href="#DejaVuSans-68"/>
      </g>
     </g>
    </g>
    <g id="xtick_23">
     <g id="line2d_30">
      <g>
       <use style="stroke:#000000;stroke-width:0.8;" x="1017" xlink:href="#m8080195d30" y="252"/>
      </g>
     </g>
     <g id="text_33">
      <!-- 16h -->
      <g transform="translate(1007.46875 266.598437)scale(0.1 -0.1)">
       <use xlink:href="#DejaVuSans-31"/>
       <use x="63.623047" xlink:href="#DejaVuSans-36"/>
       <use x="127.246094" xlink:href="#DejaVuSans-68"/>
      </g>
     </g>
    </g>
    <g id="xtick_24">
     <g id="line2d_31">
      <g>
       <use style="stroke:#000000;stroke-width:0.8;" x="1049.068966" xlink:href="#m8080195d30" y="252"/>
      </g>
     </g>
     <g id="text_34">
      <!-- 20h -->
      <g transform="translate(1039.537716 266.598437)scale(0.1 -0.1)">
       <use xlink:href="#DejaVuSans-32"/>
       <use x="63.623047" xlink:href="#DejaVuSans-30"/>
       <use x="127.246094" xlink:href="#DejaVuSans-68"/>
      </g>
     </g>
    </g>
   </g>
   <g id="matplotlib.axis_8"/>
   <g id="text_35">
    <!-- 86 ST-2 AVE -->
    <g transform="translate(919.709052 28.56)scale(0.16 -0.16)">
     <use xlink:href="#DejaVuSans-38"/>
     <use x="63.623047" xlink:href="#DejaVuSans-36"/>
     <use x="127.246094" xlink:href="#DejaVuSans-20"/>
     <use x="159.033203" xlink:href="#DejaVuSans-53"/>
     <use x="222.509766" xlink:href="#DejaVuSans-54"/>
     <use x="283.453125" xlink:href="#DejaVuSans-2d"/>
     <use x="319.537109" xlink:href="#DejaVuSans-32"/>
     <use x="383.160156" xlink:href="#DejaVuSans-20"/>
     <use x="414.947266" xlink:href="#DejaVuSans-41"/>
     <use x="483.261719" xlink:href="#DejaVuSans-56"/>
     <use x="551.669922" xlink:href="#DejaVuSans-45"/>
    </g>
   </g>
  </g>
  <g id="axes_5">
   <g id="patch_6">
    <path d="M 1103.586207 252 
L 1296 252 
L 1296 34.56 
L 1103.586207 34.56 
z
" style="fill:none;"/>
   </g>
   <g id="QuadMesh_5">
    <path clip-path="url(#pf3c595c700)" d="M 1103.586207 34.56 
L 1135.655172 34.56 
L 1135.655172 65.622857 
L 1103.586207 65.622857 
L 1103.586207 34.56 
" style="fill:#3b4cc0;"/>
    <path clip-path="url(#pf3c595c700)" d="M 1135.655172 34.56 
L 1167.724138 34.56 
L 1167.724138 65.622857 
L 1135.655172 65.622857 
L 1135.655172 34.56 
" style="fill:#d4dbe6;"/>
    <path clip-path="url(#pf3c595c700)" d="M 1167.724138 34.56 
L 1199.793103 34.56 
L 1199.793103 65.622857 
L 1167.724138 65.622857 
L 1167.724138 34.56 
" style="fill:#e1dad6;"/>
    <path clip-path="url(#pf3c595c700)" d="M 1199.793103 34.56 
L 1231.862069 34.56 
L 1231.862069 65.622857 
L 1199.793103 65.622857 
L 1199.793103 34.56 
" style="fill:#f7aa8c;"/>
    <path clip-path="url(#pf3c595c700)" d="M 1231.862069 34.56 
L 1263.931034 34.56 
L 1263.931034 65.622857 
L 1231.862069 65.622857 
L 1231.862069 34.56 
" style="fill:#f29274;"/>
    <path clip-path="url(#pf3c595c700)" d="M 1263.931034 34.56 
L 1296 34.56 
L 1296 65.622857 
L 1263.931034 65.622857 
L 1263.931034 34.56 
" style="fill:#799cf8;"/>
    <path clip-path="url(#pf3c595c700)" d="M 1103.586207 65.622857 
L 1135.655172 65.622857 
L 1135.655172 96.685714 
L 1103.586207 96.685714 
L 1103.586207 65.622857 
" style="fill:#3b4cc0;"/>
    <path clip-path="url(#pf3c595c700)" d="M 1135.655172 65.622857 
L 1167.724138 65.622857 
L 1167.724138 96.685714 
L 1135.655172 96.685714 
L 1135.655172 65.622857 
" style="fill:#ecd3c5;"/>
    <path clip-path="url(#pf3c595c700)" d="M 1167.724138 65.622857 
L 1199.793103 65.622857 
L 1199.793103 96.685714 
L 1167.724138 96.685714 
L 1167.724138 65.622857 
" style="fill:#f5c0a7;"/>
    <path clip-path="url(#pf3c595c700)" d="M 1199.793103 65.622857 
L 1231.862069 65.622857 
L 1231.862069 96.685714 
L 1199.793103 96.685714 
L 1199.793103 65.622857 
" style="fill:#e67259;"/>
    <path clip-path="url(#pf3c595c700)" d="M 1231.862069 65.622857 
L 1263.931034 65.622857 
L 1263.931034 96.685714 
L 1231.862069 96.685714 
L 1231.862069 65.622857 
" style="fill:#c32e31;"/>
    <path clip-path="url(#pf3c595c700)" d="M 1263.931034 65.622857 
L 1296 65.622857 
L 1296 96.685714 
L 1263.931034 96.685714 
L 1263.931034 65.622857 
" style="fill:#9dbdff;"/>
    <path clip-path="url(#pf3c595c700)" d="M 1103.586207 96.685714 
L 1135.655172 96.685714 
L 1135.655172 127.748571 
L 1103.586207 127.748571 
L 1103.586207 96.685714 
" style="fill:#3b4cc0;"/>
    <path clip-path="url(#pf3c595c700)" d="M 1135.655172 96.685714 
L 1167.724138 96.685714 
L 1167.724138 127.748571 
L 1135.655172 127.748571 
L 1135.655172 96.685714 
" style="fill:#efcfbf;"/>
    <path clip-path="url(#pf3c595c700)" d="M 1167.724138 96.685714 
L 1199.793103 96.685714 
L 1199.793103 127.748571 
L 1167.724138 127.748571 
L 1167.724138 96.685714 
" style="fill:#f7b599;"/>
    <path clip-path="url(#pf3c595c700)" d="M 1199.793103 96.685714 
L 1231.862069 96.685714 
L 1231.862069 127.748571 
L 1199.793103 127.748571 
L 1199.793103 96.685714 
" style="fill:#dd5f4b;"/>
    <path clip-path="url(#pf3c595c700)" d="M 1231.862069 96.685714 
L 1263.931034 96.685714 
L 1263.931034 127.748571 
L 1231.862069 127.748571 
L 1231.862069 96.685714 
" style="fill:#b40426;"/>
    <path clip-path="url(#pf3c595c700)" d="M 1263.931034 96.685714 
L 1296 96.685714 
L 1296 127.748571 
L 1263.931034 127.748571 
L 1263.931034 96.685714 
" style="fill:#9abbff;"/>
    <path clip-path="url(#pf3c595c700)" d="M 1103.586207 127.748571 
L 1135.655172 127.748571 
L 1135.655172 158.811429 
L 1103.586207 158.811429 
L 1103.586207 127.748571 
" style="fill:#3b4cc0;"/>
    <path clip-path="url(#pf3c595c700)" d="M 1135.655172 127.748571 
L 1167.724138 127.748571 
L 1167.724138 158.811429 
L 1135.655172 158.811429 
L 1135.655172 127.748571 
" style="fill:#e9d5cb;"/>
    <path clip-path="url(#pf3c595c700)" d="M 1167.724138 127.748571 
L 1199.793103 127.748571 
L 1199.793103 158.811429 
L 1167.724138 158.811429 
L 1167.724138 127.748571 
" style="fill:#f7ad90;"/>
    <path clip-path="url(#pf3c595c700)" d="M 1199.793103 127.748571 
L 1231.862069 127.748571 
L 1231.862069 158.811429 
L 1199.793103 158.811429 
L 1199.793103 127.748571 
" style="fill:#e36b54;"/>
    <path clip-path="url(#pf3c595c700)" d="M 1231.862069 127.748571 
L 1263.931034 127.748571 
L 1263.931034 158.811429 
L 1231.862069 158.811429 
L 1231.862069 127.748571 
" style="fill:#ba162b;"/>
    <path clip-path="url(#pf3c595c700)" d="M 1263.931034 127.748571 
L 1296 127.748571 
L 1296 158.811429 
L 1263.931034 158.811429 
L 1263.931034 127.748571 
" style="fill:#9dbdff;"/>
    <path clip-path="url(#pf3c595c700)" d="M 1103.586207 158.811429 
L 1135.655172 158.811429 
L 1135.655172 189.874286 
L 1103.586207 189.874286 
L 1103.586207 158.811429 
" style="fill:#3b4cc0;"/>
    <path clip-path="url(#pf3c595c700)" d="M 1135.655172 158.811429 
L 1167.724138 158.811429 
L 1167.724138 189.874286 
L 1135.655172 189.874286 
L 1135.655172 158.811429 
" style="fill:#dadce0;"/>
    <path clip-path="url(#pf3c595c700)" d="M 1167.724138 158.811429 
L 1199.793103 158.811429 
L 1199.793103 189.874286 
L 1167.724138 189.874286 
L 1167.724138 158.811429 
" style="fill:#f4c5ad;"/>
    <path clip-path="url(#pf3c595c700)" d="M 1199.793103 158.811429 
L 1231.862069 158.811429 
L 1231.862069 189.874286 
L 1199.793103 189.874286 
L 1199.793103 158.811429 
" style="fill:#dc5d4a;"/>
    <path clip-path="url(#pf3c595c700)" d="M 1231.862069 158.811429 
L 1263.931034 158.811429 
L 1263.931034 189.874286 
L 1231.862069 189.874286 
L 1231.862069 158.811429 
" style="fill:#e9785d;"/>
    <path clip-path="url(#pf3c595c700)" d="M 1263.931034 158.811429 
L 1296 158.811429 
L 1296 189.874286 
L 1263.931034 189.874286 
L 1263.931034 158.811429 
" style="fill:#86a9fc;"/>
    <path clip-path="url(#pf3c595c700)" d="M 1103.586207 189.874286 
L 1135.655172 189.874286 
L 1135.655172 220.937143 
L 1103.586207 220.937143 
L 1103.586207 189.874286 
" style="fill:#3d50c3;"/>
    <path clip-path="url(#pf3c595c700)" d="M 1135.655172 189.874286 
L 1167.724138 189.874286 
L 1167.724138 220.937143 
L 1135.655172 220.937143 
L 1135.655172 189.874286 
" style="fill:#5a78e4;"/>
    <path clip-path="url(#pf3c595c700)" d="M 1167.724138 189.874286 
L 1199.793103 189.874286 
L 1199.793103 220.937143 
L 1167.724138 220.937143 
L 1167.724138 189.874286 
" style="fill:#ccd9ed;"/>
    <path clip-path="url(#pf3c595c700)" d="M 1199.793103 189.874286 
L 1231.862069 189.874286 
L 1231.862069 220.937143 
L 1199.793103 220.937143 
L 1199.793103 189.874286 
" style="fill:#f6bea4;"/>
    <path clip-path="url(#pf3c595c700)" d="M 1231.862069 189.874286 
L 1263.931034 189.874286 
L 1263.931034 220.937143 
L 1231.862069 220.937143 
L 1231.862069 189.874286 
" style="fill:#ead4c8;"/>
    <path clip-path="url(#pf3c595c700)" d="M 1263.931034 189.874286 
L 1296 189.874286 
L 1296 220.937143 
L 1263.931034 220.937143 
L 1263.931034 189.874286 
" style="fill:#a1c0ff;"/>
    <path clip-path="url(#pf3c595c700)" d="M 1103.586207 220.937143 
L 1135.655172 220.937143 
L 1135.655172 252 
L 1103.586207 252 
L 1103.586207 220.937143 
" style="fill:#3c4ec2;"/>
    <path clip-path="url(#pf3c595c700)" d="M 1135.655172 220.937143 
L 1167.724138 220.937143 
L 1167.724138 252 
L 1135.655172 252 
L 1135.655172 220.937143 
" style="fill:#4e68d8;"/>
    <path clip-path="url(#pf3c595c700)" d="M 1167.724138 220.937143 
L 1199.793103 220.937143 
L 1199.793103 252 
L 1167.724138 252 
L 1167.724138 220.937143 
" style="fill:#abc8fd;"/>
    <path clip-path="url(#pf3c595c700)" d="M 1199.793103 220.937143 
L 1231.862069 220.937143 
L 1231.862069 252 
L 1199.793103 252 
L 1199.793103 220.937143 
" style="fill:#e0dbd8;"/>
    <path clip-path="url(#pf3c595c700)" d="M 1231.862069 220.937143 
L 1263.931034 220.937143 
L 1263.931034 252 
L 1231.862069 252 
L 1231.862069 220.937143 
" style="fill:#ccd9ed;"/>
    <path clip-path="url(#pf3c595c700)" d="M 1263.931034 220.937143 
L 1296 220.937143 
L 1296 252 
L 1263.931034 252 
L 1263.931034 220.937143 
" style="fill:#6282ea;"/>
   </g>
   <g id="matplotlib.axis_9">
    <g id="xtick_25">
     <g id="line2d_32">
      <g>
       <use style="stroke:#000000;stroke-width:0.8;" x="1119.62069" xlink:href="#m8080195d30" y="252"/>
      </g>
     </g>
     <g id="text_36">
      <!-- 0h -->
      <g transform="translate(1113.27069 266.598437)scale(0.1 -0.1)">
       <use xlink:href="#DejaVuSans-30"/>
       <use x="63.623047" xlink:href="#DejaVuSans-68"/>
      </g>
     </g>
    </g>
    <g id="xtick_26">
     <g id="line2d_33">
      <g>
       <use style="stroke:#000000;stroke-width:0.8;" x="1151.689655" xlink:href="#m8080195d30" y="252"/>
      </g>
     </g>
     <g id="text_37">
      <!-- 4h -->
      <g transform="translate(1145.339655 266.598437)scale(0.1 -0.1)">
       <use xlink:href="#DejaVuSans-34"/>
       <use x="63.623047" xlink:href="#DejaVuSans-68"/>
      </g>
     </g>
    </g>
    <g id="xtick_27">
     <g id="line2d_34">
      <g>
       <use style="stroke:#000000;stroke-width:0.8;" x="1183.758621" xlink:href="#m8080195d30" y="252"/>
      </g>
     </g>
     <g id="text_38">
      <!-- 8h -->
      <g transform="translate(1177.408621 266.598437)scale(0.1 -0.1)">
       <use xlink:href="#DejaVuSans-38"/>
       <use x="63.623047" xlink:href="#DejaVuSans-68"/>
      </g>
     </g>
    </g>
    <g id="xtick_28">
     <g id="line2d_35">
      <g>
       <use style="stroke:#000000;stroke-width:0.8;" x="1215.827586" xlink:href="#m8080195d30" y="252"/>
      </g>
     </g>
     <g id="text_39">
      <!-- 12h -->
      <g transform="translate(1206.296336 266.598437)scale(0.1 -0.1)">
       <use xlink:href="#DejaVuSans-31"/>
       <use x="63.623047" xlink:href="#DejaVuSans-32"/>
       <use x="127.246094" xlink:href="#DejaVuSans-68"/>
      </g>
     </g>
    </g>
    <g id="xtick_29">
     <g id="line2d_36">
      <g>
       <use style="stroke:#000000;stroke-width:0.8;" x="1247.896552" xlink:href="#m8080195d30" y="252"/>
      </g>
     </g>
     <g id="text_40">
      <!-- 16h -->
      <g transform="translate(1238.365302 266.598437)scale(0.1 -0.1)">
       <use xlink:href="#DejaVuSans-31"/>
       <use x="63.623047" xlink:href="#DejaVuSans-36"/>
       <use x="127.246094" xlink:href="#DejaVuSans-68"/>
      </g>
     </g>
    </g>
    <g id="xtick_30">
     <g id="line2d_37">
      <g>
       <use style="stroke:#000000;stroke-width:0.8;" x="1279.965517" xlink:href="#m8080195d30" y="252"/>
      </g>
     </g>
     <g id="text_41">
      <!-- 20h -->
      <g transform="translate(1270.434267 266.598437)scale(0.1 -0.1)">
       <use xlink:href="#DejaVuSans-32"/>
       <use x="63.623047" xlink:href="#DejaVuSans-30"/>
       <use x="127.246094" xlink:href="#DejaVuSans-68"/>
      </g>
     </g>
    </g>
   </g>
   <g id="matplotlib.axis_10"/>
   <g id="text_42">
    <!-- 66 ST-LINCOLN -->
    <defs>
     <path d="M 9.8125 72.90625 
L 19.671875 72.90625 
L 19.671875 8.296875 
L 55.171875 8.296875 
L 55.171875 0 
L 9.8125 0 
z
" id="DejaVuSans-4c"/>
     <path d="M 9.8125 72.90625 
L 19.671875 72.90625 
L 19.671875 0 
L 9.8125 0 
z
" id="DejaVuSans-49"/>
     <path d="M 9.8125 72.90625 
L 23.09375 72.90625 
L 55.421875 11.921875 
L 55.421875 72.90625 
L 64.984375 72.90625 
L 64.984375 0 
L 51.703125 0 
L 19.390625 60.984375 
L 19.390625 0 
L 9.8125 0 
z
" id="DejaVuSans-4e"/>
     <path d="M 64.40625 67.28125 
L 64.40625 56.890625 
Q 59.421875 61.53125 53.78125 63.8125 
Q 48.140625 66.109375 41.796875 66.109375 
Q 29.296875 66.109375 22.65625 58.46875 
Q 16.015625 50.828125 16.015625 36.375 
Q 16.015625 21.96875 22.65625 14.328125 
Q 29.296875 6.6875 41.796875 6.6875 
Q 48.140625 6.6875 53.78125 8.984375 
Q 59.421875 11.28125 64.40625 15.921875 
L 64.40625 5.609375 
Q 59.234375 2.09375 53.4375 0.328125 
Q 47.65625 -1.421875 41.21875 -1.421875 
Q 24.65625 -1.421875 15.125 8.703125 
Q 5.609375 18.84375 5.609375 36.375 
Q 5.609375 53.953125 15.125 64.078125 
Q 24.65625 74.21875 41.21875 74.21875 
Q 47.75 74.21875 53.53125 72.484375 
Q 59.328125 70.75 64.40625 67.28125 
z
" id="DejaVuSans-43"/>
     <path d="M 39.40625 66.21875 
Q 28.65625 66.21875 22.328125 58.203125 
Q 16.015625 50.203125 16.015625 36.375 
Q 16.015625 22.609375 22.328125 14.59375 
Q 28.65625 6.59375 39.40625 6.59375 
Q 50.140625 6.59375 56.421875 14.59375 
Q 62.703125 22.609375 62.703125 36.375 
Q 62.703125 50.203125 56.421875 58.203125 
Q 50.140625 66.21875 39.40625 66.21875 
z
M 39.40625 74.21875 
Q 54.734375 74.21875 63.90625 63.9375 
Q 73.09375 53.65625 73.09375 36.375 
Q 73.09375 19.140625 63.90625 8.859375 
Q 54.734375 -1.421875 39.40625 -1.421875 
Q 24.03125 -1.421875 14.8125 8.828125 
Q 5.609375 19.09375 5.609375 36.375 
Q 5.609375 53.65625 14.8125 63.9375 
Q 24.03125 74.21875 39.40625 74.21875 
z
" id="DejaVuSans-4f"/>
    </defs>
    <g transform="translate(1139.101853 28.56)scale(0.16 -0.16)">
     <use xlink:href="#DejaVuSans-36"/>
     <use x="63.623047" xlink:href="#DejaVuSans-36"/>
     <use x="127.246094" xlink:href="#DejaVuSans-20"/>
     <use x="159.033203" xlink:href="#DejaVuSans-53"/>
     <use x="222.509766" xlink:href="#DejaVuSans-54"/>
     <use x="283.453125" xlink:href="#DejaVuSans-2d"/>
     <use x="319.537109" xlink:href="#DejaVuSans-4c"/>
     <use x="375.25" xlink:href="#DejaVuSans-49"/>
     <use x="404.742188" xlink:href="#DejaVuSans-4e"/>
     <use x="479.546875" xlink:href="#DejaVuSans-43"/>
     <use x="549.371094" xlink:href="#DejaVuSans-4f"/>
     <use x="628.082031" xlink:href="#DejaVuSans-4c"/>
     <use x="683.794922" xlink:href="#DejaVuSans-4e"/>
    </g>
   </g>
  </g>
 </g>
 <defs>
  <clipPath id="p9b208efcfb">
   <rect height="217.44" width="192.413793" x="180" y="34.56"/>
  </clipPath>
  <clipPath id="p54b6f9abf8">
   <rect height="217.44" width="192.413793" x="410.896552" y="34.56"/>
  </clipPath>
  <clipPath id="pac6eca05b8">
   <rect height="217.44" width="192.413793" x="641.793103" y="34.56"/>
  </clipPath>
  <clipPath id="p90f2578d50">
   <rect height="217.44" width="192.413793" x="872.689655" y="34.56"/>
  </clipPath>
  <clipPath id="pf3c595c700">
   <rect height="217.44" width="192.413793" x="1103.586207" y="34.56"/>
  </clipPath>
 </defs>
</svg>
